<svg id="Layer_1" data-name="Layer 1" xmlns="http://www.w3.org/2000/svg" viewBox="0 0 612 792"><defs><style>.cls-1{fill:none;stroke:#010101;stroke-linecap:round;stroke-linejoin:round;stroke-width:12.24px;}.cls-2,.cls-3{fill:#010101;}.cls-2{fill-rule:evenodd;}.cls-4{fill:#fff;}.cls-5{fill:#231f20;}</style></defs><path class="cls-1" d="M91.86,655.79l.93-540.39,13.78-18.73L433.7,98.19l13.15,14.91L447,292l47.32,51.09-.79,55.71-22.19,6.36-.41,53.08,25.19,28.52L495.55,663,477,683.09l-371.32-.66Z"/><path class="cls-2" d="M411.91,408.37a107.35,107.35,0,0,0,1.63-17.23,162.62,162.62,0,0,0-4.35-37.93,156,156,0,0,0,2.86-29.88c0-78.5-57.56-142.25-128.48-142.25-29.79,0-57.93,10-83.11,30.57-23.13,18.92-46.27,62.2-55.28,82.15-6,13.21-14.09,26.08-19,39.69-9.6,26.58-11.53,54.25-13.11,82.09-1,17.43-5.23,35.27-7.62,52.53l-1.37,10.58-.69,3.65-1.24,7.77c-3.45,7.16-6.13,13.35-7,16.84a159.35,159.35,0,0,0-4.82,47.67c2,39.4,16.38,69.88,37.71,93.49,19.23,21.29,40.78,34.52,63.84,40,11.05,0,22.11.6,33.16.75a4.65,4.65,0,0,1,4.48-1.07c3.82,1,7.66.89,11.55.83a142.73,142.73,0,0,0,15.29-3.95c37.65-12,76.61-61.86,83.19-76.43a168.85,168.85,0,0,0,9.7-28.59l2.62-5.44c.66-1.6,1.3-3.22,2-4.84l.19-.78.42-.3c14.16-11.77,45.59-53.93,54.65-89.49A164,164,0,0,0,411.91,408.37ZM177.49,468.52,175.36,465l-.73-1.34.29.29c24.35,24.3,54.81,36.38,85.23,36.54C227.81,500.65,199.88,490.66,177.49,468.52Zm87.3,31.9-2.26,0a118.59,118.59,0,0,0,57.22-15.74l.11.91C296.48,499.41,275.86,500.06,264.79,500.42Zm94.95,28.79-.32,3.29-.06.1.8-9.35Z"/><path class="cls-2" d="M114.13,104.62a8.93,8.93,0,0,1,1.67-1.69,3.78,3.78,0,0,1,4.21-.39c.11.07.24.14.36.23a.56.56,0,0,1,.17,0,2.33,2.33,0,0,1,.64-.21,2.27,2.27,0,0,1,2,.53,2.75,2.75,0,0,1,1,2.19,9.07,9.07,0,0,1-.54,2.51,20.57,20.57,0,0,1-3.25,6,4,4,0,0,1-.71.67l0,0a10.41,10.41,0,0,1-.71,3.77,18.4,18.4,0,0,1-2.58,10.49c-1,1.42-2.43,3.73-4.11,4.91l0,.32,0,.17a59.63,59.63,0,0,1,.42,12.08c-.31,3.2-1.17,5.83-2.55,7.34a2.55,2.55,0,0,1-1.69.89,2.74,2.74,0,0,1-1.81-.53c2.5,14.19,2.61,29.9,3.61,44.25,1.91,27.46-.69,55.23,1.2,82.71,1.22,17.49-.06,35.22.92,52.81.69,12.12,1.12,24.21,1.22,36.29a2.58,2.58,0,0,1,1,.87,3.6,3.6,0,0,1,.54,1.6c.07.55,0,1.62,0,2.13.13,1.43.4,2.83.59,4.25.44,3.26,1.06,8.66,1.24,10.94a271.9,271.9,0,0,1,.61,27.54c0,.91.1,5-.22,7.92a9.88,9.88,0,0,1-1.18,4.05,2.86,2.86,0,0,1-1.51,1.17,9.72,9.72,0,0,1-.69,2.78,2.73,2.73,0,0,1-.61.92c0,1.1,0,2.22,0,3.34,0,.08,0,4.66-.8,6.49a4.54,4.54,0,0,1-.61,1.05c.43,9.07.88,18.16,1.11,27.25.43,16.8-.88,33.6-.31,50.41s4.57,33.53,4.57,50.19c0,4.73,1,9.66.59,14.39-.56,6.29-2.59,12.55-3.34,18.92a96.3,96.3,0,0,0-.6,11.4v2a4.94,4.94,0,0,1,1.84-.94c2.76-.74,4.83.66,6.27,3.13a17.94,17.94,0,0,1,1.61,4.11,12.45,12.45,0,0,1,1.48,1.37,25,25,0,0,1,6.44,9.62,15.37,15.37,0,0,1,2.39,4.11,25.3,25.3,0,0,1,1.22,3.78,17.59,17.59,0,0,1,3.63,2.62,27.57,27.57,0,0,1,7.55,9.56c2.47-.64,5.46.22,8,2.15a14.51,14.51,0,0,1,4.5,5.71,9,9,0,0,1,.69,2.85,12.57,12.57,0,0,1,2.54,4.27,4.27,4.27,0,0,1-.9,4,3.4,3.4,0,0,1-1.67,1,5.37,5.37,0,0,1-2,1.86,5.1,5.1,0,0,1-4.09.27,10.89,10.89,0,0,1-3-1.62,3,3,0,0,1-.51-.16,10.42,10.42,0,0,1-1.46-.73,4.92,4.92,0,0,1-2.17,3.26c-2.26,1.24-4.83.71-7.31-1.21l-.11-.09a4.32,4.32,0,0,1-2.31,1.88,4.88,4.88,0,0,1-4.11-.73,15.11,15.11,0,0,1-4.45-4.89,6,6,0,0,1-3.18,2.55,7.56,7.56,0,0,1-5.64-.7c-.27,0-.56,0-.82,0a11,11,0,0,1-2.05-.13,10.07,10.07,0,0,1-7.06-4.42,17.11,17.11,0,0,1-4.06-4.63l-.48-.85a41.52,41.52,0,0,1-7-12.09c-.47-1.32-1.8-6.16-1.37-9.37.31-2.32,1.4-4,3.21-4.59l.34-.13c0-.92,0-1.86.08-2.77a41.93,41.93,0,0,1-.43-11.47c.08-.75.19-1.49.33-2.2-.19-1.85-.29-3.74-.3-5.62a74.79,74.79,0,0,1-.5-15.77c.1-1.43.4-5.27,1.64-7.46a4.46,4.46,0,0,1,4-2.57c3,0,5.15,1.72,6.55,4.58a86.33,86.33,0,0,0,1.83-10.43c.4-4.56-.62-9.29-.62-13.84,0-10.76-1.67-21.55-3-32.36,0,3-1.25,3.57-2.44,3.09-1.2.48-2.41-.1-2.44-3.2v-8.23c0-3.2-.13-6.38-.29-9.58-.37-7.28-.79-14.66-.82-22a3,3,0,0,1-1.67-1.59,27.73,27.73,0,0,1-1.38-5.12c-1.05-4.6-1-9.69-1-14.44,0-5.94-.26-12.11.1-18.1a2.71,2.71,0,0,1-1.55-1.3,5.88,5.88,0,0,1-.51-2.95c.06-1.4.45-3.45.45-4.55,0-4.78-.11-9.6,0-14.4a157.72,157.72,0,0,1-.28-26.44c.09-1.64.12-3.28.32-4.91a17.61,17.61,0,0,1,1.78-4.66,3.84,3.84,0,0,1,.88-.91,25.58,25.58,0,0,1,1-4.51c.07-.82.16-1.64.29-2.44a10.35,10.35,0,0,0,0-1.08,7,7,0,0,1,.21-1.85,4.38,4.38,0,0,1,.37-.95c0-2.47,0-5,0-7.43a2.69,2.69,0,0,1,2.48-3,2.38,2.38,0,0,1,1.19.32,41.75,41.75,0,0,1,.15-7.12,2.68,2.68,0,0,1,2.57-2.33c-.08-12.25-.53-24.5-1.22-36.79-1-17.56.3-35.26-.92-52.74-1.89-27.47.71-55.24-1.2-82.7-1-14.29-1.06-29.94-3.6-44-1.08-5.92-2.1-12.45-1.86-18.76A11.88,11.88,0,0,1,98.62,131a32.43,32.43,0,0,1,1-8.2,11.82,11.82,0,0,1-.08-2.68c.29-4.14,2.44-9.18,3.51-11.4a18.54,18.54,0,0,1,2-3.5,4,4,0,0,1,3.95-1.59,9.5,9.5,0,0,1,3.52,1.37,3.32,3.32,0,0,1,1.54-.41Zm5.27,529.75c0,.26,0,.53,0,.76s.13.77.19,1.12a2,2,0,0,1,.31-.19,1.4,1.4,0,0,1,.3-.15l0-.55-.09-.73A2.91,2.91,0,0,0,119.4,634.37ZM107.77,140.65a5.06,5.06,0,0,1-1,0,26.75,26.75,0,0,0,.5,4.25l.37.85c.08-.77.13-1.57.14-2.4S107.82,141.55,107.77,140.65Zm-.75-6.44,0,.45,0-.13.1-.28Z"/><path class="cls-2" d="M318.18,105.41c17.54-1,38.85-1.85,42.78-.61,29.79,9.42,48.34,28.52,60.58,48.24,16,25.84,25.2,57.86,16.16,98.4-2.78,12.47-8.24,34.73-30.44,58.56a111.13,111.13,0,0,1-22.05,18.35A76,76,0,0,1,377,336c-21.44,16.81-44.25,23.41-66,23.41-60.8,0-110.16-54.66-110.16-122,0-35.86,14-68.13,36.32-90.47a87,87,0,0,1,11.51-10,105.17,105.17,0,0,1,15.45-9.85C283,116.55,304.45,109.37,318.18,105.41ZM221.11,209.05A123,123,0,0,0,229.54,271,133.91,133.91,0,0,1,221.11,209.05Zm.13-1.35-.1.94.24-2ZM239.37,154l-.42.31a111,111,0,0,0-13.18,30.62A126.11,126.11,0,0,1,239.37,154Zm78.81-48.57C305,106.1,294,106.88,294,106.88s6.63-2.1,8.85-2.65c8.3-2,29.55-2.59,29.55-2.59S326.8,102.88,318.18,105.41Z"/><path class="cls-3" d="M348.21,127.26C332.56,109,313,97.33,292.38,92.25c-7.13.56-14.26,1.2-21.38,1.82-17.33,1.49-34.65,2.43-52,2.67-11.65.17-23.31.11-35,0a133.57,133.57,0,0,0-31.58,16.37c4.23-2.94,13.72-8.37,13.72-8.37s-49.71,40.67-58.51,60.18c-8.19,18.13-14.29,61.8-14.29,61.8s.49-4,.85-6c-4,22.12-6.51,54.78-3.07,77.6a151.19,151.19,0,0,0,4.19,17.58l0,.75a260.16,260.16,0,0,0-2.92,37.93c0,67.32,49.35,122,110.15,122s110.18-54.66,110.18-122a6.57,6.57,0,0,1,0,1.4,146.65,146.65,0,0,0,1.56-20.48c.67-4.52,1.17-9.19,1.52-13.94,31.29-16.25,49.64-42.66,58.43-75.89C378.07,230.89,394.8,181.55,348.21,127.26ZM161.54,181.42c-8.91,39.17,0,82.42,26.92,113.84C145.76,245.49,156.52,199.86,161.54,181.42Zm39.24,145.65c-6.88-2.54-18.63-9.55-18.63-9.55a219,219,0,0,0,20.31,10.12Zm56.75-1.58c-17.81-.48-32.48-1.89-32.48-1.89s15.53.61,33.58.89ZM316,316.84l0-.55a190.22,190.22,0,0,0,18.33-13.83A231.18,231.18,0,0,1,316,316.84Z"/><polygon class="cls-2" points="260.54 324.76 260.94 324.54 260.91 324.54 260.54 324.76"/><polygon class="cls-2" points="221.19 99.02 220.77 99.23 221.48 98.9 221.19 99.02"/><path class="cls-3" d="M350.72,683.27s2.85.44,6.63,1l1.11-.06C353.77,683.68,350.72,683.27,350.72,683.27Z"/><path class="cls-3" d="M244,405.24A107.14,107.14,0,0,1,266,392.13,88.88,88.88,0,0,0,244,405.24Z"/><path class="cls-3" d="M196.94,494.66a112.84,112.84,0,0,0,.95,32l.16-.71A135.27,135.27,0,0,1,196.94,494.66Z"/><path class="cls-3" d="M391.69,423.53l-2.06.06a109,109,0,0,0-11.08-11.53,101.48,101.48,0,0,0-16.08-11.43l-2.73-2-.21-.14-.13.35c-10.08-5.72-19.73-9.78-23.14-10.82l-.75-.24A100,100,0,0,0,266,392.13c12-5,26.42-7.95,44-7.57-37.69-.82-71.36,19.47-91.77,51,5.69-9.41,13.73-20.75,25.7-30.35-17.22,13.15-31.17,31.84-39.48,54.71a131.88,131.88,0,0,0-7.53,34.71,131.59,131.59,0,0,1,13.51-45.08,131.44,131.44,0,0,0-12.74,54.56,134.81,134.81,0,0,0,1,19l-.66,2.83.87,5c.38,1.76.75,3.52,1.14,5.28l1.22,4.77a119.5,119.5,0,0,1-3.39-14.37c-2.51,10.74-4.43,21.92-4.52,30C193,598.8,209.88,628,226,645.87c16.4,18.16,122.51,26.44,122.51,26.44l-14.44,3.4c-9-1.42-17.23-3.49-22.34-6.31,4.13,2.29,10.68,4.82,18.12,7.16-6.76,1.48-13.62,2.69-17.14,2.69,2.28,0,4.65.76,6.89,1.12A210.24,210.24,0,0,0,353.06,683l5.92,1.23a159.73,159.73,0,0,1,20.64.05,5,5,0,0,1,3.91,2.27c8.73.52,17,.61,21.76-.35,25.53-5.27,44.71-18.6,58.83-34.21A123.7,123.7,0,0,0,490.54,605l.25-1.21c6.81-15.81,11.07-35,11.07-58.31C501.86,478.19,452.49,423.53,391.69,423.53Zm-184.53,71c-.63,1.55-1.44,3.84-2.35,6.71a53.31,53.31,0,0,1,2.35-6.71c.13-.31.25-.6.36-.84Zm70.11,90.73.56,2.38.94,4.68S277.48,586.39,277.27,585.22Zm4.24-39.71a143.68,143.68,0,0,1,1.79-23.08l.41-1.26A135,135,0,0,0,281.51,545.51Zm125.38-95.87a29.11,29.11,0,0,1,3.39,1.56Zm-9.49-15.79-1.51-2.24-2.25-3c12.69.71,26.65,4.45,41.84,12.86,4.74,2.61,23.21,17.32,23.21,17.32S424.58,443.34,397.4,433.85Zm91.82,89.26-.24-3,.5,1.92Z"/><path class="cls-3" d="M475.68,441.46A133.23,133.23,0,0,0,471.07,425l-2-5.22a158,158,0,0,0-1.43-21.63l.75,4.48s-1.8-30.85-5.07-45.36c-2.7-11.95-4.42-25.19-7.84-36.56-1.22-4.05-2.68-8.14-4.18-12.21-.27-6.79-1.49-16.2-2.57-23.42l-.16-4.71-.38-6.51c.08-11.41-.24-29.45-2.36-40.79l.12,1.17c0,2.17-.27,7.85-.27,7.85s-1.07-6.16-3-15.55q.54-5.83.53-11.8A71.17,71.17,0,0,1,442.4,225c-5.49-27.14-17.18-78.42-29.29-91.83a120.78,120.78,0,0,1,24.41,41.66c5,14.44,6.61,36,6.52,42.6,2-53.77-28-102.63-73.9-120.26-17.78-.07-35.56-.49-53.34-.5a4.59,4.59,0,0,1-4.7-3.82c-28,6.3-53.54,24.58-70.1,52.4l-.33.55c-4.23,7.2-18.76,46.89-18.76,68.92a133.88,133.88,0,0,0,2.87,27.63,266.29,266.29,0,0,0,3,32.45c0,6.7.16,14.4.69,21-.46-5.31-.69-10.34-.69-10.34s.07,22.28,1.69,33l.83,4.68c.44,16.16,2,34.8,6.06,48.13,2.38,7.93,5.7,16,8.24,23.92.53,3.16,1.62,9.44,2.68,14.94l.21,2.68,1.33,13.25a283.81,283.81,0,0,0-2,33c.05-3.84.8-14,.8-14s15.27,90.43,31.46,108.36c16.66,18.44,91.47,35.38,91.47,35.38s-44.8-4.91-58-12.2c28.3,15.67,65.24,18.92,94.72,6.24,46.22-19.89,73.45-70.61,70-122.68A70.34,70.34,0,0,1,475.68,441.46Zm-28.56-167.1s.5,2.71.71,4l.21,2Z"/><path class="cls-3" d="M91.18,234.77c.24,2,.47,4,.71,6.09l.31,1.94L94,248l.29.73-1.71-9.28-1.86-11.35v0c-.5-3.05-.94-5.76-1.28-7.94a4.45,4.45,0,0,1-2.83,4c1.27,5.45,3.12,11.53,5.27,17.8-.58-4.23-1-8.66-1.14-13.3Z"/><polygon class="cls-3" points="90.62 222.3 90.75 228.09 90.75 228.1 90.62 222.3"/><path class="cls-3" d="M292,153.54c-12.87-26.4-34.28-46.94-60.11-57.11q-6.45.22-12.91.31c-20.14.29-40.28-.09-60.42-.47-34.29,13.32-60.84,44.9-70.13,84.19a3.9,3.9,0,0,1,2.06,4.22c-1.34,11-1,22.17-1,33.27,2.92,11.18,13,48.71,22.23,72.45l2.2,4.75-.79-1.24.55,1.37,2,4.41.13.17,1.12,1.44L115.84,300l-.1-.11a38.79,38.79,0,0,0,5.33,9,38,38,0,0,0,9.38,7.29c19.08,17.55,43.6,28.11,70.33,28.11,60.8,0,110.17-54.64,110.17-122,0-26.53-6.58-46.36-14.95-61.72C295,158.52,293.54,156.08,292,153.54Z"/><path class="cls-3" d="M100.61,273c2.91,5.94,10.1,17.18,12.51,20.9l-1.41-3.51c-3.69-8-11.24-24.82-17.39-41.66a197.39,197.39,0,0,0,4.6,20A131.44,131.44,0,0,1,92.2,242.8l-.29-.85a117.23,117.23,0,0,0,23.83,57.93l-.08-.19A125.21,125.21,0,0,1,100.61,273Z"/><path class="cls-2" d="M448.35,605.26a25.94,25.94,0,0,1,20.76-10.85c14.87,0,26.93,13.37,26.93,29.82l0,1.6a35.9,35.9,0,0,1-5.84,36.54c-.36.41-.71.84-1.1,1.25-4,6.52-10.32,12.2-13.15,13.73a25.25,25.25,0,0,1-10.63,3.09,26.22,26.22,0,0,1-5.28-.21,18.44,18.44,0,0,1-3.88,1.7,26.5,26.5,0,0,1-20.39-2.47c-10.59-5.85-13.35-14.4-14.6-20.06a31.2,31.2,0,0,1,5.07-25.83,29.09,29.09,0,0,1,6.59-6.69l.43-.28C434.89,617.23,440.56,609.26,448.35,605.26Z"/><path class="cls-2" d="M431.72,362.22c-2-2.08-3.85-4-5.46-5.79-10.52-11.63-10.52-30.54,0-42.16s27.58-11.65,38.08,0c6.54,7.23,16.17,16.75,22,28.23a61.43,61.43,0,0,1,5.44,42.36c-2.81,12.41-8.8,17.87-14.07,21.28-2.16,1.39-5.51,2.33-8.85,2.95a44.86,44.86,0,0,1-7.69,5.05,25.39,25.39,0,0,1-18.85.5c-6.73-2.43-12.4-7.16-16.13-15.43C419.2,383.74,423,371.49,431.72,362.22Z"/><path class="cls-2" d="M448.65,152.54a4.92,4.92,0,0,1,.61-2.46,19.37,19.37,0,0,0-.11-2.3,77.57,77.57,0,0,0-2.38-12.2c-1.11-7-3.5-17.66-8.22-22.88-10.49-11.62-27.93-15.33-41.85-15.33-14.88,0-26.94,13.37-26.94,29.82,0,16.23,11.74,29.46,26.34,29.8.27,2.26.27,4.55.58,6.81a75.81,75.81,0,0,0,2.63,12.25c-.19,3.11-.41,7.88-.32,10.58A45.57,45.57,0,0,0,402,202.07c4,9.74,10.59,15.59,19,18.19,10.37,3.22,21-.77,27.64-9.24Zm-1-10.43s-.2-2.49-.77-6.1C447.33,138.5,447.61,142.11,447.61,142.11Z"/><polygon class="cls-2" points="438.39 163.92 438.9 164.17 438.63 164.03 438.39 163.92"/><polygon class="cls-2" points="437.09 163.39 437.91 163.71 437.62 163.59 437.09 163.39"/><path class="cls-2" d="M436.73,163.25c-.4-.14-.8-.29-1.22-.41Z"/><path class="cls-2" d="M163.07,96.35c-13.86-.26-27.73-.53-41.6-.62-8.68,5-14.63,15-14.63,26.51,0,16.47,12.08,29.82,26.94,29.82,6.74,0,15.32.27,21.66-1.51,14.41-4,23.14-20.25,19.5-36.2A29.66,29.66,0,0,0,163.07,96.35Z"/><path class="cls-2" d="M329.46,685.69c10.54-.07,21-1.15,31.55-1.61a45.57,45.57,0,0,0,7.34-2.18c15.85-6.4,23-19.74,23-34,0-10.78-4.11-17.27-8.06-21.63a25.62,25.62,0,0,0-16.11-8.58c-2.68-.36-12,3-17.32,5.1a25,25,0,0,0-10.76-5.62c-14.48-3.77-29,6.21-32.37,22.23a32.56,32.56,0,0,0,1.28,18c1.17,3.91,3.25,10.21,5.13,13.19a32,32,0,0,0,4.72,5.85,28.45,28.45,0,0,0,9.25,9.86A5,5,0,0,1,329.46,685.69Z"/><path class="cls-4" d="M134.85,384c3.22,0,3.23-5,0-5s-3.22,5,0,5Z"/><path class="cls-5" d="M371.71,432.28a271.06,271.06,0,0,1-12.44,78q-3.31,10.55-7.51,20.79l4.57-.6q-6.66-10.37-13.92-20.33-3.71-5.07-7.56-10a78.77,78.77,0,0,0-7.12-8.36c-4.76-4.64-11.4-8.31-18.14-5.82-6.37,2.35-10.42,8.33-12.89,14.38-3.27,8-3.69,16.92-7,24.95l4.82,1.33a400,400,0,0,0,4-50.33,2.5,2.5,0,1,0-5,0Q290.45,503.56,289,531t-1.4,54.65q.06,15.48.6,30.93c.11,3.25,4.74,3.18,5,0,1.42-17.77-7.53-36.36-22.63-46a37.84,37.84,0,0,0-13.07-5.26,2.56,2.56,0,0,0-3.07,1.75,2.51,2.51,0,0,0,1.74,3.07c15.82,3.05,27.32,17.3,31,32.43a44.28,44.28,0,0,1,1.07,14h5q-1-27.45-.37-54.93t2.77-54.59q1.23-15.41,2.95-30.76h-5a388.25,388.25,0,0,1-3.85,49,2.5,2.5,0,0,0,4.82,1.33c2.82-6.76,3.64-14.08,5.71-21.06,1.59-5.37,4.38-11.32,9.48-14.17s10.51.06,14.38,3.78c5.07,4.88,9.19,10.9,13.34,16.55Q345,522.13,352,533c1.25,2,3.76,1.37,4.57-.59a273.56,273.56,0,0,0,18.9-77.32q1.08-11.39,1.22-22.82c0-3.21-5-3.22-5,0Z"/><path class="cls-5" d="M262.82,503.46q-1.19,24.48-.31,49c.05,1.44,1.58,3.06,3.16,2.41,4.33-1.79,6.69-5.58,8.14-9.88,1.61-4.78,2.2-10,3-14.91q2.87-17.65,4.65-35.46,1-10,1.65-20.08h-5c-.17,17.78-.34,35.56-.35,53.33s.15,35.39.63,53.07q.42,15.07,1.17,30.12c.16,3.2,5.16,3.22,5,0-.91-17.75-1.4-35.51-1.63-53.28s-.2-35.39-.08-53.08q.11-15.09.26-30.16c0-3.24-4.79-3.18-5,0q-1.1,16.92-3.18,33.75-1,8.19-2.29,16.34c-.79,5.13-1.5,10.32-2.65,15.38-.77,3.44-2.07,8.56-5.65,10l3.17,2.42q-.87-24.51.31-49c.15-3.22-4.85-3.21-5,0Z"/><path class="cls-5" d="M286.22,666.49a110.09,110.09,0,0,0,34.65,3.87c3.26-.16,3.16-4.68,0-5A147,147,0,0,0,272,668.77a2.48,2.48,0,0,0-1.79,2.74,2.53,2.53,0,0,0,2.45,2.17c9.06.92,18.15,1.75,27.21.36,7.66-1.17,15-4.3,22.79-4.69A17.88,17.88,0,0,1,334,672.23v-4.32c-8.54,6.5-20.19,8.09-29.92,3.28a2.57,2.57,0,0,0-3.42.9,2.53,2.53,0,0,0,.9,3.42,33.57,33.57,0,0,0,35-3.28,2.54,2.54,0,0,0,0-4.32c-6.86-4.69-15.24-3.92-23-2.17-3.94.9-7.82,2-11.77,2.88a60.76,60.76,0,0,1-13.32,1.19c-5.28-.06-10.55-.6-15.81-1.13l.67,4.91a142.74,142.74,0,0,1,47.51-3.23v-5a105.63,105.63,0,0,1-33.33-3.69c-3.1-.86-4.43,4-1.32,4.82Z"/><path class="cls-5" d="M495.56,514.32a21.71,21.71,0,0,0-1,9.89l1.84-2.41-.55.13c-.27.08.35,0-.12,0H495c-.26,0-.23,0,0,0a8.06,8.06,0,0,1-1.19-.33c-.37-.13.46.28-.14-.06-.17-.1-.35-.18-.51-.28l-.5-.32c-.37-.22,0,0-.17-.11a9.82,9.82,0,0,1-.89-.82l-.42-.45s-.46-.61-.22-.27a12.31,12.31,0,0,1-.67-1c-1.72-3-2.07-6.89-2.4-10.4a2.55,2.55,0,0,0-2.5-2.5,2.52,2.52,0,0,0-2.5,2.5c.44,4.59.87,9.59,3.47,13.56,2.43,3.69,6.77,6.46,11.3,5.2a2.51,2.51,0,0,0,1.83-2.41,17.71,17.71,0,0,1,.85-8.56,2.52,2.52,0,0,0-1.74-3.08,2.56,2.56,0,0,0-3.08,1.75Z"/><path class="cls-5" d="M145.65,373.59a23.41,23.41,0,0,0,.26,18.18c1.09,2.58,5.66.69,4.57-1.93a136.25,136.25,0,0,0-6.29-13.13c-1.15-2.08-2.35-4.13-3.62-6.15a18.39,18.39,0,0,0-4-4.91c-1.61-1.27-3.67-2.23-5.76-1.67-2.34.64-3.5,2.86-3.78,5.11a37.49,37.49,0,0,0,1.07,13.17,39.55,39.55,0,0,0,6.06,13.4,2.57,2.57,0,0,0,3.42.9,2.52,2.52,0,0,0,.9-3.42,36.19,36.19,0,0,1-6.59-19.91,12.68,12.68,0,0,1,.25-4.35c0-.07-.26,0,.14-.11-.32.08-.1,0,.09.11a8.85,8.85,0,0,1,1.37.89,18.3,18.3,0,0,1,3,4.09c1,1.7,2.06,3.43,3,5.17a122.32,122.32,0,0,1,5.89,12.14l4.57-1.92a18.64,18.64,0,0,1,.25-14.33,2.52,2.52,0,0,0-1.75-3.07,2.55,2.55,0,0,0-3.07,1.74Z"/><path class="cls-5" d="M129.73,377.11l0,11.37h5A140,140,0,0,1,141.31,343c1-3.07-3.84-4.39-4.82-1.33a144.48,144.48,0,0,0-6.8,46.85c.06,3.21,5,3.22,5,0l0-11.37c0-3.21-5-3.22-5,0Z"/><path class="cls-5" d="M138.68,374.47c2.83,4.4,1,10.2-2.6,13.55a18.89,18.89,0,0,1-6.84,3.9c-.6.2-1.2.39-1.82.55-.18,0-1,.1-.8.19-.66-.34-.84-2.37-1-3.08-1-5.86-2.25-12.78,1.23-18.08,1.15-1.74,3-3.42,5.14-3.58,2.51-.18,5.2,1.75,7,3.36s3.59,4,3.33,6.54a5,5,0,0,1-1.49,3,4.7,4.7,0,0,1-.93.65c-.52.19-.64.16-.9,0a2.57,2.57,0,0,0-3.42.9,2.51,2.51,0,0,0,.9,3.42c3.57,1.7,7.13,0,9.22-3.11A10.47,10.47,0,0,0,145.9,372a18.8,18.8,0,0,0-8.13-7.56c-3.59-1.85-7.64-2.06-11.07.29-7.47,5.11-7.63,14.65-6.44,22.72.51,3.4.82,8.71,4.78,10,2,.63,4.18-.17,6.07-.85a27.43,27.43,0,0,0,5.25-2.49,18.32,18.32,0,0,0,7.86-9.74A14.64,14.64,0,0,0,143,372c-1.73-2.7-6.06-.19-4.32,2.52Z"/><path class="cls-5" d="M140,382.93l.07-7c0-2.85-4.11-3.35-4.91-.66l-6.82,22.9c-.93,3.09,3.9,4.41,4.82,1.33L140,376.6l-4.91-.67-.07,7c0,3.21,5,3.22,5,0Z"/><path class="cls-5" d="M177.63,481.88l32.21,7.77c2.07.5,4.28,1.18,6.4.57a4.92,4.92,0,0,0,3.46-5.66c-.36-2.37-1.68-4.72-2.72-6.86s-2.18-4.23-3.42-6.25a74.91,74.91,0,0,0-10-12.94,2.44,2.44,0,0,0-2.43-.65c-5.68,2.15-4.82,8.69-5.61,13.37-.38,2.22-1,4.2-3.18,5-2.38.89-5.17.51-7.64,0-1.95-.37-4.16,1.72-2.82,3.67,2.45,3.6,7.09,5.63,11.31,3.93a2.6,2.6,0,0,0,1.75-3.08,2.52,2.52,0,0,0-3.08-1.74,4.62,4.62,0,0,1-5.67-1.63l-2.82,3.67c6.13,1.16,13.55,1.05,16.22-5.73,1-2.58,1.07-5.44,1.32-8.17a13.86,13.86,0,0,1,.57-3.18c.06-.16.11-.32.17-.47-.07.18-.07.2,0,0s.48-.73.18-.36a3.11,3.11,0,0,1,.48-.48c-.48.38.65-.25.15-.05L200,462a70.43,70.43,0,0,1,13.86,20.75c.18.41.36.81.52,1.21s.22,1.26.45,1.46c0,0,0,.37,0,.1,0,0,.1-.17.1-.16s.13,0,.13,0a3.37,3.37,0,0,1-.34.09c-1.68.21-3.73-.67-5.46-1.08l-14.19-3.43L179,477.05c-3.12-.75-4.46,4.07-1.32,4.83Z"/><path class="cls-5" d="M192.59,484.21c3.21,0,3.22-5,0-5s-3.23,5,0,5Z"/><path class="cls-5" d="M315.08,668.92l3.55,6.62.39-3c-.11.11-.48.57-.63.57l.18-.13-.14.1-.34.22a7.28,7.28,0,0,1-.72.4l-.22.11.22-.09-.31.11a6.41,6.41,0,0,1-.78.23c-.19.05-.65,0-.79.16.37-.05.45-.07.26-.05l-.25,0h-.32a8.77,8.77,0,0,1-.89,0,2.1,2.1,0,0,0-.41,0c.08-.07.61.11.1,0-.26-.06-.53-.11-.79-.18s-.52-.18-.78-.26.56.27.07,0l-.37-.18c-.24-.13-.48-.27-.71-.42a4,4,0,0,1-.34-.23c-.38-.25.25.25,0,0a16.68,16.68,0,0,1-1.24-1.28,2.5,2.5,0,0,0-3.53,0,2.57,2.57,0,0,0,0,3.54c3.93,5,11.78,5.24,16.23.85a2.57,2.57,0,0,0,.39-3l-3.56-6.62a2.52,2.52,0,0,0-3.42-.9,2.55,2.55,0,0,0-.89,3.42Z"/><path class="cls-5" d="M303.48,677.38a36.66,36.66,0,0,0,18.77-1.61,2.64,2.64,0,0,0,1.84-2.41c.16-1.61,1.7-2.9,2.8-3.93a40,40,0,0,0,4.06-4.27,33,33,0,0,0,6-11.52c.64-2.36-.18-4.92-2.82-5.44a7.79,7.79,0,0,0-5.91,1.66,5.08,5.08,0,0,0-1.76,5.51c.64,2.09,2.81,3.8,5.05,3a2.57,2.57,0,0,0,1.74-3.08,2.51,2.51,0,0,0-3.07-1.75c.28-.1.88.36,1.1.43s-.11-.17-.08-.19c-.18.13.3-.16.34-.18a7.92,7.92,0,0,1,1.35-.45c.21-.07.27-.11.24-.07s-.63-1.32-.95-.94a9.05,9.05,0,0,0-.72,2.13c-.24.65-.51,1.28-.8,1.9a30.64,30.64,0,0,1-2.13,3.79,33.53,33.53,0,0,1-5.35,6.06c-2.18,2.05-3.83,4.29-4.13,7.34l1.83-2.41a31.59,31.59,0,0,1-16.11,1.61,2.58,2.58,0,0,0-3.08,1.74,2.53,2.53,0,0,0,1.75,3.08Z"/><path class="cls-3" d="M191.54,475.69c3.23,1.23,6-2.24,5.7-5.23a7.85,7.85,0,0,0-4.3-6.19,8.83,8.83,0,0,0-7-.4,13.19,13.19,0,0,0-6,5,27.32,27.32,0,0,0-3.3,7.15c-.46,1.38-1.16,2.92-.8,4.4.43,1.77,2.12,2.36,3.7,2.71,4.81,1,12.86,2,14.53-4.18a6.51,6.51,0,0,0-3.89-7.77c-3.06-1.18-7.15,1.72-5.93,5.14a2.57,2.57,0,0,0,3.07,1.75,2.53,2.53,0,0,0,1.75-3.08c-.17-.47,0,.1,0,.26a1.4,1.4,0,0,1-.18.52l-.08.1c.2-.19.19-.18,0,0,.09,0,.46-.15,0,0,.19-.05.37,0-.08,0l-.28-.05.22.05.2.07c-.22-.09-.25-.1-.09,0s.36.31.12.08c0,0,.46.53.27.26s.19.37.18.34c-.19-.37.1.4.12.53-.08-.57-.1.69,0,.11a4.25,4.25,0,0,1-.15.59c-.06.16-.05.15,0-.05a3.07,3.07,0,0,1-.17.31c-.18.34.23-.23,0,.06-.08.08-.45.42-.08.14a4.12,4.12,0,0,1-.45.27c.31-.16-.05,0-.11,0l-.5.12c-.76.18.24,0-.22,0s-.93,0-1.4.06a23.11,23.11,0,0,1-5.1-.46,9,9,0,0,0-1.34-.31l-.19-.06,1.1,1.51c.06,0-.09.28.06-.07.38-.88.59-1.87.91-2.78a20.84,20.84,0,0,1,2-4.4,8.79,8.79,0,0,1,1.05-1.47,10.45,10.45,0,0,1,.8-.83l.37-.34c.54-.48-.31.18.28-.22.28-.18.55-.36.84-.51-.05,0,.66-.33.36-.19l.26-.1a7,7,0,0,1,1-.25c-.11,0-.49,0,0,0h.65c.46,0,.1,0,0,0,.22,0,.43.08.64.13l.41.13c.54.14-.24-.17.21.08l.38.21c.13.08.53.39.2.11a4.86,4.86,0,0,1,.78.79c-.38-.51.35.7.19.33a2.86,2.86,0,0,1,.19.65c0,.17,0,.17,0,0,0,.29,0,.35,0,.2s0,.4,0,.12l-.07.13c.14-.18.16-.21,0-.08s.1-.09.18-.12.87,0,.44-.11a2.51,2.51,0,0,0-3.08,1.75,2.57,2.57,0,0,0,1.75,3.07Z"/><path class="cls-3" d="M256,497.65c-.89,6.07-1.67,12.67.32,18.62,2.11,6.32,7.73,10.74,14.58,10.08,7.24-.7,12.56-5.91,16.49-11.64a68.28,68.28,0,0,0,9.26-20.19c1.81-6.53,3.05-13.65,2.37-20.45-.57-5.72-2.38-11.86-7.33-15.31-6.24-4.36-13.74-1.11-19.06,3.06a74.13,74.13,0,0,0-13.72,14.85,96.71,96.71,0,0,0-16.27,37.23c-2.55,12.44-3.24,26,1.17,38.14,1.93,5.3,4.84,10.46,9.3,14,5.59,4.48,12.48,5.75,19.47,4.61,6.76-1.1,13.24-4.26,19-7.87A79,79,0,0,0,306.15,551a88,88,0,0,0,20-32.86c2.36-6.92,4.32-14.5,3.3-21.84-.88-6.4-5-13.5-11.92-14.76-7.45-1.35-12.75,5.18-17,10.27A111.26,111.26,0,0,0,288.6,509a118.25,118.25,0,0,0-8.66,19.45q-1.74,5.09-3,10.31c-.84,3.48-1.7,7.06-1.09,10.64a8.7,8.7,0,0,0,6.35,7,10.77,10.77,0,0,0,9-2c2.93-2.17,5-5.23,6.88-8.29a82.61,82.61,0,0,0,4.94-9.17c5.7-12.41,8.94-27.3,3.6-40.41a36.15,36.15,0,0,0-28.57-21.82c-14.43-2-28.37,4.51-39.49,13.22-10.25,8-20.05,22.89-11.63,35.63,3.58,5.43,9.31,8.82,15,11.73a96.14,96.14,0,0,0,20.78,8.17,50.45,50.45,0,0,0,21.59,1,38.8,38.8,0,0,0,18.21-9.15c10.87-9.53,16.67-23.55,20.09-37.28a215.87,215.87,0,0,0,4.38-23.79,101.26,101.26,0,0,0,.73-24.35c-.64-5.74-2.35-12.49-7.52-15.84-6.72-4.34-13.83,1.2-18.54,5.85C291.87,449.6,282.86,462.8,283,477c.07,6.27,2.29,12.73,7.06,17a22.07,22.07,0,0,0,15.34,5.42A24.71,24.71,0,0,0,321.22,493c4.82-4.3,8.07-10.15,10.13-16.21,4.19-12.33,3.62-26.18-.18-38.52a72.64,72.64,0,0,0-19.69-31.66c-9.81-9.12-22.87-15.74-36.47-15.86a35.91,35.91,0,0,0-19.95,5.81,48.46,48.46,0,0,0-13.86,14.16C233,423.2,230,438.59,229.31,453.24c-.65,13.44,1,27.53,7.25,39.61a47.91,47.91,0,0,0,13.06,15.72A88.47,88.47,0,0,0,268,519.14c7.18,3.24,14.64,6.1,22.47,7.24a47.1,47.1,0,0,0,20.94-1.49c13.06-4.06,24-13.16,32.17-23.89,9-11.76,14.9-25.61,19.5-39.58a245.38,245.38,0,0,0,10.6-45.85,156,156,0,0,0-.7-46.91c-1.18-6.69-2.67-14.75-10.17-17-7.21-2.11-13.71,2.54-18.63,7.28A186.7,186.7,0,0,0,318,390.71a206.08,206.08,0,0,0-19.25,36.9,210,210,0,0,0-11.4,38.92,2.56,2.56,0,0,0,1.75,3.07,2.51,2.51,0,0,0,3.07-1.75,205.68,205.68,0,0,1,28.48-72.06,187,187,0,0,1,23.28-29.53,74,74,0,0,1,7-6.62c2.24-1.78,4.94-3.35,7.87-3.43a7,7,0,0,1,6.16,2.86c1.77,2.64,2.26,6.05,2.85,9.1,5.47,28.58.7,58.25-7.64,85.79-7.39,24.43-19,51.2-43.07,63.27a43.47,43.47,0,0,1-16.61,4.66c-7.11.45-14.11-1.06-20.81-3.37A115.92,115.92,0,0,1,261,510.09a52.71,52.71,0,0,1-15-12c-7.72-9.26-10.82-21.73-11.56-33.53-.86-13.43.72-27.53,5.49-40.15,4.17-11,11.95-21.87,23.2-26.43,12.1-4.9,25.93-1,36.52,5.72,19.17,12.22,30.81,35.53,29.55,58.15-.6,10.78-4.47,23.7-14.21,29.71-7.82,4.83-19.29,3.7-24.3-4.66-6.29-10.51-.53-24.19,5.85-33.2a74.61,74.61,0,0,1,6.78-8.26,36.78,36.78,0,0,1,7.35-6.47c2.3-1.38,4.92-2,7.14-.44a11,11,0,0,1,3.51,5.29c2.19,6.18,2.05,13.2,1.72,19.66a172.84,172.84,0,0,1-2.88,22.2c-2.48,13.52-6.06,27.31-14.26,38.6a41.12,41.12,0,0,1-13,11.9,34.87,34.87,0,0,1-18.33,4.11,61,61,0,0,1-19.42-4.39,89.63,89.63,0,0,1-17.2-8.57c-4.55-3-8.56-7.27-9-13-.5-6,2.56-11.73,6.32-16.18a56.19,56.19,0,0,1,15-12,48.66,48.66,0,0,1,18-6.44c11.13-1.41,22.68,2.71,29.72,11.62,7.75,9.79,7.56,23.06,4.11,34.49a74.94,74.94,0,0,1-7.92,17.35c-1.57,2.58-3.24,5.43-5.72,7.24-1.71,1.26-4.12,2-6,.73-2.26-1.49-1.87-4.87-1.45-7.16a91.54,91.54,0,0,1,2.32-9.37A109.92,109.92,0,0,1,300.4,500c1.89-2.55,3.92-5,6.05-7.37,1.95-2.14,4-4.68,6.77-5.82,5.33-2.21,9.8,3.75,10.95,8.24,1.65,6.44-.18,13.42-2.1,19.6a82.18,82.18,0,0,1-17.3,30.54c-7.7,8.56-17.64,16.13-28.76,19.56-6,1.84-12.48,2.18-17.95-1.24-4.06-2.53-6.93-6.76-8.78-11.16-4.39-10.39-4.29-22.33-2.5-33.28A93.87,93.87,0,0,1,260,484a82.45,82.45,0,0,1,11.35-14.24,38.86,38.86,0,0,1,7.09-5.9c2.43-1.47,5.36-2.69,8.23-1.93,4.56,1.2,6.43,6.34,7.17,10.8,1,5.84,0,12-1.3,17.74A65.85,65.85,0,0,1,285,509.18c-3,5-7,10.52-12.91,11.94a9.28,9.28,0,0,1-7.39-1.16,9.82,9.82,0,0,1-3.61-5.18c-1.63-5-1-10.66-.27-15.8a2.58,2.58,0,0,0-1.74-3.08,2.52,2.52,0,0,0-3.08,1.75Z"/><path class="cls-3" d="M334.29,495.42v7.14c0,2.16-.13,4.37,0,6.52a6.41,6.41,0,0,0,2.93,5.36,9.45,9.45,0,0,0,5.18,1c2.05-.14,3.91-1.17,4.37-3.3.48-2.3-1.23-4.37-2.58-6a23,23,0,0,0-9.13-6.72,13.39,13.39,0,0,0-5.36-1.28c-2.62.12-4,2.23-4.45,4.6-.82,4.25.51,8.46,2.65,12.13a52,52,0,0,0,16.74,16.9c3.08,2,7.8,5.45,11.25,2.51,2.95-2.5,2.76-7.2,2.06-10.63a17.32,17.32,0,0,0-5.73-9.9c-1.69-1.35-4-2.21-6-1.14s-2.7,3.19-2.93,5.29a18.27,18.27,0,0,0,2.81,11.74,7.8,7.8,0,0,0,4.46,3.56,5.77,5.77,0,0,0,5.4-1.7c2.78-2.77,3.65-7.32,4.25-11a46.43,46.43,0,0,0,.33-13.16c-.48-4-1.17-8.63-3.5-12a10.62,10.62,0,0,0-9.44-4.52A25,25,0,0,0,337.13,494a43.37,43.37,0,0,0-9.26,6.66c-5.75,5.37-10.76,12.68-12.13,20.54-1.46,8.38,1.48,17.06,6.4,23.83,4.75,6.55,12.07,11.55,20.5,10.2,8-1.27,13.06-8.8,15.3-16a64.74,64.74,0,0,0,2.27-12.73q.72-6.93,1-13.89c.35-8.44.67-17.33-1.84-25.49-1.14-3.7-2.86-7.89-6.1-10.24-3.71-2.68-7.88-.68-11.23,1.55a42.53,42.53,0,0,0-14.21,16.11c-3.43,6.74-5.93,15.13-4.61,22.72s8.67,13.53,16.4,11.46a14,14,0,0,0,8.45-6.71c1.59-2.8-2.73-5.33-4.31-2.52-2.56,4.52-8.37,6.29-12.46,2.61-4.66-4.22-3.69-11.2-2.28-16.68a40.29,40.29,0,0,1,7.55-15.27,37.71,37.71,0,0,1,6-6,31.86,31.86,0,0,1,3.21-2.19c1.11-.67,2.68-1.81,4-1.34a5,5,0,0,1,2.21,2.17,21.41,21.41,0,0,1,2,4.23,38.63,38.63,0,0,1,2,9.4,136.67,136.67,0,0,1-.19,21.79c-.46,7-.85,14.3-3.21,21-1.83,5.14-5.68,10.6-11.53,11.25-6,.67-11.36-3.28-14.71-7.91-3.83-5.29-6.58-11.86-6.08-18.49.47-6.19,4-12.07,8-16.66a38,38,0,0,1,14.36-10.48c2.25-.9,4.89-1.62,7.29-1,2.63.7,3.67,3.18,4.35,5.59a41.21,41.21,0,0,1,.42,20.69,19.62,19.62,0,0,1-1.26,4,6,6,0,0,1-1,1.55c-.24.26-.53.5-.66.5-.79,0-1.5-1.24-1.87-1.89a13.66,13.66,0,0,1-1.64-4.65,10.59,10.59,0,0,1,0-4.16,3.6,3.6,0,0,0,.1-.43l.17-.3a.46.46,0,0,1-.48.2c.08-.27,1.39.87,1.44.92a13.36,13.36,0,0,1,3.7,7.53,10.14,10.14,0,0,1,0,3.56,3.45,3.45,0,0,1-.46,1.22c-.14.16-.09.27-.46,0-1.2-.83-2.68-1.38-3.94-2.15a45.38,45.38,0,0,1-4.4-3c-4.86-3.71-9.57-8.52-12.39-14a15.58,15.58,0,0,1-1.47-4.17,9.1,9.1,0,0,1-.13-2.21,15.37,15.37,0,0,0,.38-1.95l-.37.22a.29.29,0,0,0,.16,0,4.85,4.85,0,0,0,1.09.25,17.19,17.19,0,0,1,2,.63,17.64,17.64,0,0,1,3.88,2.18,18,18,0,0,1,2.93,2.72c.38.43.74.87,1.08,1.34.09.13.52,1,.65,1,.14.3.22.17.24-.37.74-.46.85-.6.34-.41-.51-.14-1.92.18-2.59-.32s-.49-2.51-.49-3.38V495.42c0-3.22-5-3.22-5,0Z"/><path class="cls-3" d="M260.13,470.16c4,19.59-5.37,43.69,9.31,60.28,6.64,7.5,17,11.09,26.9,10.64,9.41-.44,18.33-4.29,25.75-10a68.07,68.07,0,0,0,19-23c5.2-10.16,7.9-21.44,9.12-32.75a166.82,166.82,0,0,0-.43-35.74c-1.27-11.75-2.82-23.81-6.35-35.12-3.24-10.38-8.6-20.25-17.53-26.77a26.91,26.91,0,0,0-26.66-3.4c-8.58,3.66-15,11.19-19.82,18.94-5.65,9.06-9.36,19.16-12.54,29.3a247.8,247.8,0,0,0-11.24,72.12A220.12,220.12,0,0,0,258.09,531c1.77,11.09,5.16,22.31,12.53,31,6.48,7.65,16,12.76,26.19,11.26,9.75-1.43,17.59-8.66,23.42-16.13,6.79-8.69,12-18.59,16.94-28.42a320.2,320.2,0,0,0,14-32.34,324.29,324.29,0,0,0,17.21-68.8c1.52-11.15,2.43-22.58.21-33.71-1.73-8.71-7.61-25.93-19.59-20.3-7.91,3.72-12.91,12.15-15.14,20.29-2.42,8.82-2.23,18.3-.46,27.23,3.86,19.47,16.33,37.51,32.16,49.24a72.33,72.33,0,0,0,12.57,7.52c2.61,1.21,5.43,2.33,8.34,1.61a7.61,7.61,0,0,0,4.9-4.05c1.94-4,1.39-8.91.15-13a83.06,83.06,0,0,0-5.88-14.24,81.47,81.47,0,0,0-18.34-23.43c-7.45-6.53-16.57-12.33-26.29-14.69-5.58-1.35-11.48-1.1-16.43,2.05-4.29,2.73-7.46,6.9-10,11.22a128.38,128.38,0,0,0-7.32,15.12q-3.5,8.27-6.23,16.81a201.62,201.62,0,0,0-7.75,35.18q-1.17,9-1.51,18a114.91,114.91,0,0,0,.2,16.7c.5,4.77,1.57,9.69,4.59,13.54a13.08,13.08,0,0,0,12.33,5c4.82-.73,9.06-3.9,12.42-7.26a65,65,0,0,0,9.47-13.09,226.35,226.35,0,0,0,25.49-64.44A236.89,236.89,0,0,0,361.45,425c.18-2.2-2.83-3.24-4.26-1.77A125.94,125.94,0,0,0,331,463.83a132.57,132.57,0,0,0-7.11,23.63c-.83,4.12-1.46,8.28-1.92,12.46-.41,3.86-1.47,8.86,1.21,12.13,2.38,2.91,6.06,2.39,8.75.24a17.07,17.07,0,0,0,5.47-9.09,118.4,118.4,0,0,0,3.83-24.89A121.49,121.49,0,0,0,333.41,429c-2.91-7.55-6.43-15.3-11.42-21.72-4.53-5.82-11.52-10.48-19-7.19-6.33,2.79-9.74,10-11.53,16.29a74.5,74.5,0,0,0-2.38,22.06,94.27,94.27,0,0,0,11.55,42.72,84.51,84.51,0,0,0,12.71,17.51c4.93,5.2,10.86,10.35,17.41,13.38,3.88,1.79,8.25,2.76,12.35,1.09a15.17,15.17,0,0,0,7.4-7.17A39.41,39.41,0,0,0,354,495.64c.89-4.14,1.6-8.31,2.19-12.5a199.24,199.24,0,0,0,.56-51.29,197.47,197.47,0,0,0-12.35-49.44c-6-15.13-13.68-30.29-24.67-42.44-5.07-5.61-11.09-10.65-18-13.79a39.92,39.92,0,0,0-23.14-3c-16.55,2.7-29.72,14.7-38.38,28.46a112.26,112.26,0,0,0-15.62,43.5,109.42,109.42,0,0,0,2.07,43.58c3.58,13.44,10.42,26.35,20.95,35.63,6,5.29,13.56,9.44,21.81,8.42,7.31-.91,13.54-5.31,18.37-10.67A72.81,72.81,0,0,0,300.1,452a154.58,154.58,0,0,0,8.31-24.79,162,162,0,0,0,4-52.39,152.89,152.89,0,0,0-4.48-25.93c-2.19-8.2-5.3-16.39-10.44-23.22-4.79-6.35-11.56-11.63-19.5-13.21s-15.49,1.08-21.6,6.29-10.8,12.64-14.66,19.8a150.56,150.56,0,0,0-10.28,24.36c-5.44,16.55-8.91,33.84-11.46,51-4.93,33.37-5.59,68.08,3,100.91a165.7,165.7,0,0,0,8.08,23.42c3.18,7.38,6.83,14.76,11.65,21.22,4.52,6.06,10.29,11.8,17.76,13.93A22.62,22.62,0,0,0,280,569.6c12.66-9.26,18.41-25.67,23.1-40A295.64,295.64,0,0,0,314.9,476.2a470.78,470.78,0,0,0,3.72-55.15c.13-9.26.28-18.59-.32-27.84-.57-8.85-2.05-17.77-6.05-25.77-3.29-6.61-8.49-12.81-15.38-15.82-7.09-3.09-14.7-2.51-21.66.67-7.22,3.3-13.3,9-18.28,15.12a118.05,118.05,0,0,0-13,20.42c-14.69,28.22-22.23,60-23.1,91.71s5,64,18.15,93c6.54,14.48,14.9,29.31,28.07,38.74C273.52,616,282,619.77,289.4,615c7.09-4.6,9.9-13.08,10.36-21.14.49-8.68-1-17.66-2.54-26.19a191.19,191.19,0,0,0-5.9-23.81A189.4,189.4,0,0,0,270.44,499c-8.72-13.62-19.19-26.78-32.24-36.47-12.11-9-28.3-15.57-43.2-9.66-13.26,5.27-21.27,18.33-24.27,31.81-3.48,15.6-.3,31.46,6.62,45.67a119,119,0,0,0,13.42,21,126.62,126.62,0,0,0,17.09,18.45c6,5.17,12.89,9.42,20.64,11.36a47,47,0,0,0,20.8.27c14.26-2.92,27.17-11.7,36.47-22.72,10.6-12.58,17-28.35,20.82-44.2,4.12-16.91,5.62-34.42,6.25-51.78.69-18.85,0-37.87-3.75-56.4-3.1-15.35-8.15-32.05-19.54-43.42a33.28,33.28,0,0,0-20-9.85c-8.48-.9-17,1.73-24.5,5.63-26.84,14.07-42.6,45-44.29,74.49a87.48,87.48,0,0,0,9.38,45c6.7,13,17.42,24.51,31.33,29.69a47.29,47.29,0,0,0,39.33-3.16c13.52-7.7,20.79-21.91,23.12-36.9,2.66-17.07.52-34.86-2.73-51.71-3.36-17.45-8.74-35.15-17.51-50.7-7-12.49-18.58-26.26-34.18-26.51-13.75-.23-23.8,10.5-29.58,21.93-7.19,14.22-9.51,30.28-10.61,46a214.34,214.34,0,0,0,3.62,56.52c3,15.22,7.77,30.39,16.31,43.48,7.32,11.21,18,21.33,31.74,23.35,15.51,2.29,29.61-6,40.1-16.78,11.69-12,20-27.12,26.47-42.44a184.21,184.21,0,0,0,13.1-50.88,174,174,0,0,0,1-26.42c-.36-8.7-1.49-17.6-4.76-25.73-3-7.54-7.82-14.3-14.74-18.74-6.35-4.07-14.27-5.55-21.44-2.83-7.48,2.84-13.08,8.86-17.59,15.27a124.67,124.67,0,0,0-11.72,21.19A166.88,166.88,0,0,0,260,480.23a137.38,137.38,0,0,0,6.54,24.08c2.95,7.73,7,15.51,13.37,21,6,5.18,14.05,8.36,22.05,6.72,7.45-1.54,13.14-7.33,16.93-13.63,4.17-6.95,6.57-15,8-22.88a95.8,95.8,0,0,0,1.18-25.75c-1.51-16.46-7.08-32.92-17.59-45.85-8.7-10.72-21.84-18.95-36.1-16.79-12.89,2-24.22,12.07-26.49,25.08a2.57,2.57,0,0,0,1.75,3.07,2.51,2.51,0,0,0,3.08-1.74c2.12-12.17,13.11-21.28,25.39-21.79,13.81-.57,25.46,9.93,32.52,20.81,8.49,13.08,12.58,28.89,12.82,44.4a88.64,88.64,0,0,1-2.95,24.21c-1.83,6.85-4.5,13.88-9.21,19.3-4.43,5.1-10.58,8.11-17.4,6.62-7.48-1.62-13.3-7.07-17.27-13.37-4.21-6.67-6.75-14.23-8.83-21.78a153.17,153.17,0,0,1-4.44-22.65c-3.62-30.92,1.55-63.19,15.73-91,3.38-6.63,7.15-13.33,12.12-18.93,4.49-5.05,10.37-9.49,17.43-9.43s13.28,4.35,17.68,9.54c5,6,7.6,13.67,9,21.22a116.3,116.3,0,0,1,1.39,24.59,176.1,176.1,0,0,1-2.51,25.11,177.75,177.75,0,0,1-14.84,46.69c-6.69,13.88-15.09,27.53-26.95,37.59a46.42,46.42,0,0,1-17.85,9.84,31.52,31.52,0,0,1-19-.86c-11.89-4.33-20.25-15.31-26-26.11-7.22-13.59-10.95-28.76-13.32-43.88A209.72,209.72,0,0,1,214.88,400c1.41-13.9,4.09-28.12,11.3-40.29,3-5,6.83-9.77,11.92-12.79a21.41,21.41,0,0,1,16.45-2.36c6.49,1.73,11.88,6.17,16.26,11.11a79.24,79.24,0,0,1,12,18.92c7.33,15.57,12,32.36,14.73,49.33,2.51,15.58,4.18,32.23.56,47.77-1.61,6.94-4.37,13.84-8.91,19.41a39.08,39.08,0,0,1-15,11.3,42.36,42.36,0,0,1-35.56-1.26c-12.37-6.42-21.27-18.09-26.62-30.74a84.58,84.58,0,0,1-5.8-42.29,92.07,92.07,0,0,1,14.21-39.63c7.56-11.65,18.29-22.07,31.24-27.47,7.09-3,15.1-4.31,22.57-2,6.28,1.92,11.47,6.33,15.42,11.46,9.5,12.37,13.42,28.68,15.87,43.78,2.86,17.66,3,35.69,2.14,53.53-.79,16.07-2.4,32.2-6.47,47.81-3.82,14.68-9.92,29.42-20.09,40.88-8.94,10.09-20.91,17.93-34.31,20.32a40.52,40.52,0,0,1-18.51-.93c-7.11-2.1-13.32-6.37-18.74-11.33a133.34,133.34,0,0,1-16-17.82,112.3,112.3,0,0,1-12.25-19.79c-6.22-13.13-8.91-27.91-5.4-42.17,2.95-12,10.3-23.94,22.62-27.82,14-4.43,28.67,2.93,39.42,11.61,11.88,9.59,21.53,22.13,29.54,35a184.14,184.14,0,0,1,19.23,42A190.48,190.48,0,0,1,292.4,569c1.43,7.94,2.75,16.23,2.38,24.32-.3,6.79-2.61,15-9.33,18.17-3.39,1.59-7,.62-10.23-1a43.62,43.62,0,0,1-9.15-6.26c-11.26-9.92-18.47-24-24.29-37.59-11.82-27.63-16.87-58.06-15.92-88,.95-29.74,7.89-59.53,21.32-86.14,6.59-13.07,14.84-27.11,28-34.52,5.84-3.29,12.61-4.57,19-2.05S305,364.06,307.94,370c3.66,7.35,4.91,15.7,5.4,23.81.53,8.89.41,17.83.29,26.73a483.58,483.58,0,0,1-3.24,51.88A299.65,299.65,0,0,1,300,523.12a173.46,173.46,0,0,1-8.26,22.67c-2.92,6.28-6.53,12.47-11.58,17.28-4.26,4.06-9.78,6.85-15.8,6.09-6.85-.86-12.37-6-16.49-11.18-4.76-6-8.29-13-11.42-20a154.2,154.2,0,0,1-7.79-21.61c-8.64-30.67-8.7-63.26-4.71-94.68a340.15,340.15,0,0,1,9.56-48.28c4.35-15.6,10.29-31.65,20.28-44.6,4.21-5.45,9.93-10.87,17.08-11.77s13.89,2.54,18.85,7.27c5.76,5.5,9.33,12.94,11.79,20.41a130,130,0,0,1,5.23,23.8,157.21,157.21,0,0,1-1.43,49.64,155,155,0,0,1-6.48,23.68,96.8,96.8,0,0,1-9.88,20.59c-3.74,5.65-8.62,11.21-15,14-6.52,2.82-13.24,1.21-19-2.63-10.89-7.32-18.21-19.71-22.19-32-8.52-26.23-4.75-56.43,7.79-80.75,7-13.53,17.54-26.23,32.36-31.32a35.93,35.93,0,0,1,21.49-.95A43.46,43.46,0,0,1,312,339.19c11.16,10.39,18.81,24.37,24.94,38.17a190.47,190.47,0,0,1,13.64,46,196.34,196.34,0,0,1,2,47.88,173.39,173.39,0,0,1-3.48,23.67c-1.18,5.29-3.51,14-10.31,14.11-3.81.07-7.35-2.11-10.4-4.14a63.47,63.47,0,0,1-7.55-5.92,75.86,75.86,0,0,1-12.85-15.29,88.31,88.31,0,0,1-13.43-38.58,83.86,83.86,0,0,1,.4-20.88c.94-6.13,2.65-13.07,7.24-17.56A8.55,8.55,0,0,1,309,404c3.24.34,5.9,2.69,8,5a48.76,48.76,0,0,1,6.11,9.36,101.32,101.32,0,0,1,4.77,10.11,117.49,117.49,0,0,1,8.48,46.28,113.2,113.2,0,0,1-2.81,23.2c-.76,3.33-1.41,6.85-3.76,9.47a6,6,0,0,1-2.23,1.68c-.39.06-.31,0-.11.06a1.07,1.07,0,0,1-.49-.4,4.09,4.09,0,0,1-.48-2.48c0-7.29,1.52-14.83,3.2-21.89a128.74,128.74,0,0,1,7-21.39,120.59,120.59,0,0,1,24-36.26L356.45,425a228.52,228.52,0,0,1-14.55,63.85,215.21,215.21,0,0,1-13.85,29.19c-2.5,4.38-5,8.86-8.32,12.68-2.83,3.26-6.35,6.61-10.63,7.76a8.26,8.26,0,0,1-9.25-3.87c-2.25-3.58-2.84-8-3.07-12.17a171.27,171.27,0,0,1,1.65-33,196.9,196.9,0,0,1,7.44-32.89,156.63,156.63,0,0,1,12.58-29.93c2.16-3.79,4.78-7.68,8.5-10.11,4.48-2.92,9.65-2.66,14.6-1.16,8.68,2.64,16.74,7.84,23.4,13.92a78.21,78.21,0,0,1,16.72,22,70.22,70.22,0,0,1,5.21,13c.75,2.66,1.81,7.67-.61,9.82-1.56,1.38-4,.19-5.59-.55-2.07-1-4.1-2-6.06-3.2a72.14,72.14,0,0,1-11.07-8,81.66,81.66,0,0,1-17.6-22c-8-14.55-12.24-33.11-5.91-49.1A27.31,27.31,0,0,1,345.9,382c2.52-2.55,7-6.42,10.44-3.45a18.16,18.16,0,0,1,4.06,6,40.69,40.69,0,0,1,2.49,6.74,61.22,61.22,0,0,1,2.05,15.18c.21,10.73-1.41,21.47-3.27,32a327.1,327.1,0,0,1-7.46,32.56,314.4,314.4,0,0,1-24.51,61.21c-4.67,8.8-9.55,17.78-16.28,25.2-5.76,6.35-13.36,11.8-22.34,11s-16.51-8.11-20.79-15.63c-5.36-9.38-7.28-20.38-8.39-31a243.91,243.91,0,0,1,2.47-68.19,241,241,0,0,1,8.38-33.16c3.05-9.23,6.64-18.26,12-26.4,4.43-6.7,10.44-13.4,18.31-15.93,8.38-2.69,16.79.37,23,6.22,7.57,7.1,11.51,16.95,14,26.84a216.29,216.29,0,0,1,5.12,33c1.85,21.06,1,44-9.32,63-8.15,14.94-23.19,28.92-41.17,28.9-8.9,0-18.22-3.74-23.35-11.29-5.37-7.91-5.63-17.79-5.43-27,.2-9.68,1-19.42-1-29-.65-3.15-5.47-1.82-4.83,1.33Z"/><path class="cls-3" d="M196.67,468.85a8.64,8.64,0,0,0,2.34,8.33c1.86,1.84,5.14,3.53,7.82,3.35,3.58-.24,4.39-4.2,4.85-7.07a36.85,36.85,0,0,0,.36-9.84c-.31-3-1.08-5.86-3.62-7.73a9.07,9.07,0,0,0-8.18-1.11c-5.43,1.77-9.56,6.57-12.55,11.22a57.34,57.34,0,0,0-7.38,16.34,26.43,26.43,0,0,0,.89,17.18c2.15,4.93,6.46,8.57,11.92,9a11,11,0,0,0,7.22-1.93,16.25,16.25,0,0,0,5.06-6.74,102.06,102.06,0,0,0,8.81-41.42c0-2-2.85-3.49-4.27-1.77A87.07,87.07,0,0,0,192.69,491c-.79,3.16,3.75,4.34,4.82,1.33,3.14-8.83,3-18.37,2.75-27.62a2.54,2.54,0,0,0-2.5-2.5,2.57,2.57,0,0,0-2.5,2.5,62.68,62.68,0,0,0,.67,20c.3,1.58.68,3.15,1.11,4.7a14.11,14.11,0,0,0,1.78,4.49c2.13,3,5.94,2.25,7.56-.81a32.57,32.57,0,0,0,2.72-9.29,51.75,51.75,0,0,0,.84-10c-.05-2.76,0-6.26-2.19-8.33-2.72-2.58-5.93-.34-7.43,2.31-3,5.3-1.54,12.45,3.68,15.75,2.64,1.67,6.28,2,8.26-.84a7.06,7.06,0,0,0-.24-8c-1.69-2.36-4.38-3.74-7-4.76a14.35,14.35,0,0,0-8.16-.82,10.1,10.1,0,0,0-6.64,5.46A24.05,24.05,0,0,0,187.3,484a12.36,12.36,0,0,0,2.94,9.11,6.77,6.77,0,0,0,4.66,2.39c2.06,0,3.45-1.15,4.6-2.73a39.45,39.45,0,0,0,3.5-7,19.52,19.52,0,0,1,1.8-3.3,5.21,5.21,0,0,1,1.9-1.63,2.58,2.58,0,0,0,1.74-3.08,2.52,2.52,0,0,0-3.07-1.75c-3.53,1.38-5.4,4.36-6.88,7.69-.74,1.66-1.41,3.35-2.29,4.94a6,6,0,0,1-1.21,1.8c-.16.13.06.08.11.07a.73.73,0,0,1-.31-.09,3.3,3.3,0,0,1-1-.84c-2.65-3.08-1.37-7.86.08-11.15.75-1.69,1.65-3.63,3.5-4.32a7.86,7.86,0,0,1,4.91.13,13.53,13.53,0,0,1,4.8,2.35,3.66,3.66,0,0,1,1.25,1.71c.09.36.18,1.31-.2,1.55.13-.08.09-.08-.06-.08a2.29,2.29,0,0,1-.93-.29,5.84,5.84,0,0,1-2-1.58,6.87,6.87,0,0,1-1.4-4.87,7,7,0,0,1,.69-2.46,6.15,6.15,0,0,1,.64-1.08c.09-.12.29-.25.35-.38.3-.26.13-.22-.51.11l-.54-.14c-.22,0-.09-.48,0,.15.09.44.28.85.34,1.3a25.52,25.52,0,0,1,.16,3.19,46,46,0,0,1-2.06,14.45c-.2.64-.39,1.31-.65,1.93,0,.07-.41.72-.35.8-.39-.55.91.07.92.06.19-.17.28.7,0-.23-.17-.46-.36-.91-.51-1.39a57,57,0,0,1-2-24.68h-5c.22,8.83.43,17.85-2.57,26.29l4.82,1.33a81.55,81.55,0,0,1,16-32.08l-4.26-1.77a100,100,0,0,1-4.83,30.21c-.8,2.47-1.69,4.9-2.69,7.3a18.18,18.18,0,0,1-3.25,5.73c-2.45,2.55-6.33,2.31-9.11.4-3.21-2.21-4.69-6.49-5-10.23A30,30,0,0,1,187.06,478a53.54,53.54,0,0,1,6.66-11.94,24.38,24.38,0,0,1,4.47-4.55c1.56-1.18,3.65-2.51,5.72-2.22s2.82,2,3.09,3.93a30.42,30.42,0,0,1-.1,8.68c-.1.7-.24,1.39-.39,2.08a9.11,9.11,0,0,0-.45,1.64c0,.13-.39.4.15.06s.14-.1-.17-.24c-.53-.24-1.13-.34-1.66-.58-1.81-.83-3.48-2.55-2.88-4.68.86-3.11-4-4.43-4.83-1.33Z"/><path class="cls-3" d="M269.57,582.16a13.76,13.76,0,0,0,8.49,15.67c2.62,1,6.94,2,9.5.36a5.68,5.68,0,0,0,2.29-4.23c.29-1.83.51-3.68.66-5.53a69.13,69.13,0,0,0-1.42-20.13,64.69,64.69,0,0,0-2.92-9.72c-1.11-2.84-2.26-6.35-5.06-8-6.07-3.56-10.73,5.57-12.78,9.84a54.52,54.52,0,0,0-4.89,17.13c-1.38,11.46.8,23.69,6.82,33.62,5.91,9.72,17.38,18.65,29.33,14.57,11.66-4,18.08-16.71,21.3-27.76a72.19,72.19,0,0,0,2.86-20.5A73.56,73.56,0,0,0,322.9,567a26.8,26.8,0,0,0-2.84-9.46,11,11,0,0,0-6.74-5.41A7.92,7.92,0,0,0,305,555a32.51,32.51,0,0,0-4.47,8.93,54.71,54.71,0,0,0-2.58,9.42,60.55,60.55,0,0,0-.32,19.65c.88,6,2.61,12.18,6.48,17,3.71,4.59,9.67,6.48,15,3.4,5.77-3.33,8.08-10,9.41-16.19,3-13.79,5-28.2,2.92-42.27-.89-6-2.41-12.64-6.79-17.17a9.93,9.93,0,0,0-7.22-3.3c-3.24.1-5.85,2-8.07,4.22A107,107,0,0,0,287,571.58c-5.31,12.11-8.51,26-5.05,39.06,1.52,5.72,4.57,11.31,9.58,14.66a12.17,12.17,0,0,0,15.33-1.3c4.13-3.83,6.14-9.62,7.51-14.92a90.87,90.87,0,0,0,2.92-20,70.39,70.39,0,0,0-2.17-20.13c-1.55-5.84-3.89-12-8.25-16.33a13.55,13.55,0,0,0-7.29-4,11.5,11.5,0,0,0-8.58,2.16c-5,3.65-8,9.85-9.31,15.78-3,13,.85,26.4,8.19,37.22,6.94,10.23,17.14,20,29.54,22.89A27.17,27.17,0,0,0,336.86,625,34,34,0,0,0,350,613.66c7.87-10.9,9.82-24.94,9.8-38,0-11.18-1.1-23.82-8.46-32.81A21.87,21.87,0,0,0,335.87,535c-6.25-.45-12.49,1.41-18.17,3.83a105.17,105.17,0,0,0-31.94,21.57c-9,8.79-17.93,19.61-18.89,32.68-.42,5.69.73,11.9,4.09,16.61,3.93,5.51,10.18,8.17,16.39,10.3,6.67,2.28,13.78,3.63,20.81,2.4a32.15,32.15,0,0,0,15.6-8.07c9.45-8.45,15.21-20.66,19.34-32.43a131.4,131.4,0,0,0,7.54-39.77c.35-12.92-1.74-26.26-8-37.69-3-5.5-7.51-10.41-14-11.61-6.23-1.16-12.53.74-18,3.63a57.88,57.88,0,0,0-14.33,10.85,43.29,43.29,0,0,0-10,15.71c-3.93,11.11-2.14,25.13,7.66,32.63,9.54,7.3,23.24,6.88,34.36,4.24,12.2-2.9,23.31-9.3,33-17.14,19.63-15.92,33.9-38.35,42.17-62.07a134.55,134.55,0,0,0,5-18.08c1.13-5.76,1.75-12.5-1.52-17.72s-9.59-7.11-15.45-5.82c-6.39,1.42-11.71,6.24-16.46,10.48-8.72,7.8-16.53,17.44-18.7,29.23a2.51,2.51,0,0,0,4.57,1.93A43.56,43.56,0,0,0,369,462.57l-4.91-.67a212.14,212.14,0,0,0,2.53,41.29c.33,2.07,3.7,2.48,4.57.6a78.14,78.14,0,0,0,6.63-42.6,2.56,2.56,0,0,0-1.53-2.28,2.47,2.47,0,0,0-2.74.52A119.56,119.56,0,0,0,351,509a128.14,128.14,0,0,0-2.14,15.73,2.48,2.48,0,0,0,2.17,2.45,2.54,2.54,0,0,0,2.74-1.79,350.07,350.07,0,0,0,14.43-43.15q2.93-11,5.31-22c1.59-7.34,3.17-14.72,4.16-22.18,1.1-8.26,1.22-16.83-1.52-24.81a2.52,2.52,0,0,0-4.92.67,180.36,180.36,0,0,0,3.7,58.18,2.5,2.5,0,1,0,4.82-1.33l-2-10.73a2.52,2.52,0,0,0-3.08-1.75,2.55,2.55,0,0,0-1.74,3.07l2,10.74,4.82-1.33a176.08,176.08,0,0,1-3.52-56.85l-4.91.66c2.36,6.84,2.42,14.07,1.63,21.2S370.56,450,369.06,457a431.44,431.44,0,0,1-11.43,43.29q-3.88,12-8.7,23.74l4.91.67A117.37,117.37,0,0,1,369,475a106.66,106.66,0,0,1,8-12.06l-4.27-1.77a73.34,73.34,0,0,1-6,40.07l4.57.6a205.53,205.53,0,0,1-2.35-40c.1-2.77-4.37-3.46-4.91-.66a40.38,40.38,0,0,1-7.56,16.92l4.57,1.92c2-10.88,9.09-19.54,17.11-26.76,4.11-3.7,8.7-8,14.21-9.37,4.31-1.06,9,.48,10.86,4.75,2,4.73.81,10.48-.3,15.28a148.46,148.46,0,0,1-4.85,16.54A143.05,143.05,0,0,1,382.92,511c-12.11,18.34-29.35,35.45-50.62,42.49a58.07,58.07,0,0,1-16,3c-5,.19-10.26-.26-14.93-2.29a19.12,19.12,0,0,1-10.14-10,26.55,26.55,0,0,1-1.47-14.78c1.87-10.69,9.32-19.24,17.94-25.36,4.35-3.09,9.31-5.79,14.66-6.54a13.89,13.89,0,0,1,13.25,5.18c3.46,4.3,5.65,9.83,7.2,15.07a72.85,72.85,0,0,1,2.79,17,117.69,117.69,0,0,1-4.2,35.61c-3,11.5-7.42,23.06-14.4,32.77a40.7,40.7,0,0,1-10.66,10.56,25.41,25.41,0,0,1-15.64,4,50.27,50.27,0,0,1-17.42-4.76c-4.92-2.25-8.8-5.58-10.44-10.87-3.33-10.73,1.86-21.46,8.57-29.67a104.31,104.31,0,0,1,26.28-22.87,82.79,82.79,0,0,1,15-7.45c5-1.79,10.66-3,16-1.75,10.06,2.45,13.86,13,15.3,22.18a91.25,91.25,0,0,1,.8,16.19,74.62,74.62,0,0,1-2.59,18.63c-2.73,9.57-8.73,19.61-18.39,23.47-10.29,4.1-21.18-.93-29-7.72-8.54-7.42-15.5-17.49-18.1-28.59a37.4,37.4,0,0,1-.17-16.74c1.11-4.83,3.38-10.56,7.77-13.31,4.2-2.63,8.26.08,10.81,3.65,3.23,4.49,4.9,10.07,6,15.43,2.38,11.7,1.27,24.09-1.92,35.52-1.17,4.21-2.91,9.25-6.58,11.94s-7.82,1-10.73-2c-3.69-3.9-5.39-9.34-6-14.56a50,50,0,0,1,1.13-17.36c2.71-11.66,8.44-22.61,15.35-32.31a82,82,0,0,1,11.55-13.47c1.6-1.44,3.46-2.39,5.31-1.58s3.13,2.71,4.09,4.43c2.77,5,3.53,11.27,3.91,16.88a99.23,99.23,0,0,1-.7,19A135,135,0,0,1,323,598.86c-1.16,4.3-3.58,10.29-8.67,11.08-4.52.71-7.66-4.31-9.22-8A44.48,44.48,0,0,1,302,586a54.11,54.11,0,0,1,2.29-17.48,47.63,47.63,0,0,1,3-7.63c.89-1.77,2-4.28,4.34-4s3.87,2.44,4.72,4.43a31.41,31.41,0,0,1,1.88,8.35A68,68,0,0,1,318,588c-1.66,10.66-5.65,22.52-14.16,29.7a15.8,15.8,0,0,1-12.51,3.93c-5-.79-9.29-3.86-12.66-7.48-7-7.51-10.27-18.1-10.6-28.2s2.19-20.65,8.09-29c.44-.62,1.24-1.87,2.08-2s1.18.87,1.51,1.45a40.1,40.1,0,0,1,3,7.72,63.74,63.74,0,0,1,2.9,18.13,64.43,64.43,0,0,1-.46,8.89c-.08.66-.16,1.33-.28,2,0,.25-.11.5-.15.75-.1.76-.15.18.16.1a7.9,7.9,0,0,1-3.31-.2c-4.62-1-8.38-5.31-7.27-10.23.71-3.13-4.11-4.47-4.82-1.33Z"/><path class="cls-3" d="M271.2,437.18c1.27,19.41-2.4,39.4,3.43,58.34A49.19,49.19,0,0,0,281,509.07c1.56,2.27,5.31.94,4.57-1.92q-3.79-14.62-8.77-28.91l-4.57,1.93L281,498.26a2.5,2.5,0,1,0,4.31-2.52l-8.73-18.09c-1.22-2.53-5.51-.75-4.57,1.92q5,14.26,8.77,28.91l4.57-1.93c-10.44-15.12-9.29-34.7-8.93-52.18.12-5.73.16-11.46-.21-17.19a2.56,2.56,0,0,0-2.5-2.5,2.52,2.52,0,0,0-2.5,2.5Z"/><path class="cls-3" d="M310,543.49c-4.47,8.43-6.9,18.27-5.9,27.84,1,9.83,3.55,19.16,8.81,27.66s12.57,15.4,20.93,21.08c7.25,4.91,15.58,8.3,23.76,11.27a52.81,52.81,0,0,0,9.54,2.93c4.84.76,8.86,1.24,13.7-.28a24.18,24.18,0,0,0,13.91-11.1c5.43-9.6,3.18-22.37-4.93-29.77-7.58-6.91-17.95-8.36-27.57-5.31a171.83,171.83,0,0,0-43.49,20.91,200.74,200.74,0,0,0-23.23,18.17q-4.74,4.3-9.12,9c-2.8,3-5.33,6.28-8.52,8.83l4.05-3.13a15.06,15.06,0,0,1-2.72,1.65l4.78-2a11,11,0,0,1-1.93.57l5.32-.72a9.19,9.19,0,0,1-2,0l5.32.71a11.15,11.15,0,0,1-1.6-.44l4.78,2a15.15,15.15,0,0,1-2.93-1.73l4.05,3.12a51.4,51.4,0,0,1-9-9l3.13,4A80.58,80.58,0,0,1,279,621.92l2,4.78c-6-14.22-9.29-29.37-13.42-44.18a462,462,0,0,0-16.83-50.37,299.72,299.72,0,0,0-12.48-27.59c-4.92-9.25-12.13-18.66-21.91-23.09a37.76,37.76,0,0,0-11.8-3.59,32.77,32.77,0,0,0-13,.58,33.88,33.88,0,0,0-16,9.5c-8.36,9-12.37,21-12.22,33.13a91.55,91.55,0,0,0,2.46,18.47,100.63,100.63,0,0,0,3.22,12.18c2.38,6.72,5.38,12.64,10.39,17.82s11,8.15,17.5,10.85a56.8,56.8,0,0,0,24.35,4,77.77,77.77,0,0,0,14.39-2.07,86,86,0,0,0,14.14-5.22c7.83-3.44,14.85-8.58,21.29-14.13a101,101,0,0,0,29.16-45.72,95.22,95.22,0,0,0,3.1-16.75,54.4,54.4,0,0,0,.16-11.76,59.53,59.53,0,0,0-2.85-14.62,53.82,53.82,0,0,0-9.42-16.66,22.17,22.17,0,0,0-2.9-3,36.16,36.16,0,0,0-7.44-5.26,33,33,0,0,0-8.42-3.05,37.6,37.6,0,0,0-15.2.16,35.05,35.05,0,0,0-13.76,6.53A80.08,80.08,0,0,0,231.44,464,230.88,230.88,0,0,0,214,486.43a219.68,219.68,0,0,0-24.07,47.42A106.38,106.38,0,0,0,183.72,561a57.19,57.19,0,0,0,5.61,30.37,28.86,28.86,0,0,0,2.79,4.61,57.6,57.6,0,0,0,6.71,8A73.39,73.39,0,0,0,212,613.69a112.19,112.19,0,0,0,26.72,10.9c9.37,2.52,19,3.84,28.64,5,8.24,1,16.54,1.69,24.83,2.08a152,152,0,0,0,25.33-.68,139.44,139.44,0,0,0,17.38-2.91,101,101,0,0,0,52.67-34.36,115.33,115.33,0,0,0,14.09-22,122.32,122.32,0,0,0,9.21-26.16,137.35,137.35,0,0,0-.29-58.94A131.34,131.34,0,0,0,401,459.22a79,79,0,0,0-16.22-23.07C371,422.9,351.88,416,332.84,416.52c-18.22.53-35.86,7.24-50.77,17.56-15.21,10.54-29.1,23.51-39.73,38.71a61.41,61.41,0,0,0-5.76,10c-2.17,4.83-4.27,9.72-5.25,14.94s-1.76,10.75-1.13,16.12c.79,6.79,2.12,13.6,6.19,19.32a38.58,38.58,0,0,0,15,13.06A150.29,150.29,0,0,0,266,552.11a71.18,71.18,0,0,0,10.26,2.74c5,.92,10.34,1.77,15.48,1.38a63.61,63.61,0,0,0,9.41-1.32,48.71,48.71,0,0,0,9.4-3.58,23.71,23.71,0,0,0,4.28-2.62,43,43,0,0,0,7.54-6.5,56.2,56.2,0,0,0,5.75-7.8,71.56,71.56,0,0,0,4.19-9.23,52,52,0,0,0,2.91-10.68,115.57,115.57,0,0,0-2.87-52.15,118.16,118.16,0,0,0-24.5-44.49,100,100,0,0,0-18.59-16.2,66.44,66.44,0,0,0-9.26-5.41c-5.12-2.44-10.54-4.8-16.17-5.84a70.38,70.38,0,0,0-10.24-1.26,54.83,54.83,0,0,0-11.15,1.1,42.87,42.87,0,0,0-13.78,5.33c-8.42,4.88-15,12.25-20.26,20.31-4.71,7.19-8.06,15.37-10.89,23.45A121.44,121.44,0,0,0,191.48,467a52.52,52.52,0,0,0,0,11.69,75.36,75.36,0,0,0,1.64,10.21,61.26,61.26,0,0,0,3.86,10c4.27,9.21,12.14,16.54,20.58,21.92,7.48,4.77,16.07,7.88,24.42,10.75a231.77,231.77,0,0,0,25.86,7.26,275.62,275.62,0,0,0,31,4.83,105.77,105.77,0,0,0,30-.86,58.08,58.08,0,0,0,28-14,52.67,52.67,0,0,0,9.43-11.46,45.45,45.45,0,0,0,3.22-6.62,42.76,42.76,0,0,0,2.58-7.24c2.65-11.58,1.05-23.42-2.86-34.52A128.29,128.29,0,0,0,358,444.64a119.52,119.52,0,0,0-35.83-37.35,78.26,78.26,0,0,0-10.07-5.74,86.71,86.71,0,0,0-15.59-6c-10.64-2.69-22.8-3.15-33.22.77a58.65,58.65,0,0,0-13.56,6.76A78.27,78.27,0,0,0,238,413.07,99.2,99.2,0,0,0,222,435.87a125.36,125.36,0,0,0-10.31,27.45,115.58,115.58,0,0,0-3.42,27.77,109.62,109.62,0,0,0,1.5,15.32,56.19,56.19,0,0,0,2.43,10.05A65.25,65.25,0,0,0,218.38,530a52.41,52.41,0,0,0,8.83,10.9c5.08,4.59,11.12,8.68,17.87,10.3,6.09,1.46,12.93,1.6,18.86-.62a39.21,39.21,0,0,0,15.71-10.17,55.12,55.12,0,0,0,8.55-12.09,90.43,90.43,0,0,0,8.52-27,144.43,144.43,0,0,0,1.87-30.09c-1-17.93-4.45-36.4-11.36-53a119.47,119.47,0,0,0-7-14.79,89,89,0,0,0-9.07-12.49,67.61,67.61,0,0,0-12.11-10.66,53.68,53.68,0,0,0-10-5.66,101,101,0,0,0-15.69-5.66,125.81,125.81,0,0,0-14.18-2.59c-10.65-1.43-21.48-1.62-31.92,1.51-9.64,2.88-19.11,8.31-25.61,16.13a52.8,52.8,0,0,0-8.14,12.2,57.16,57.16,0,0,0-3.54,9.34,58.42,58.42,0,0,0-1.46,10.1c-.72,11,3.5,22.17,9.06,31.43a189.28,189.28,0,0,0,17.66,24c6.25,7.46,13.08,15.07,21.32,20.38a35.36,35.36,0,0,0,9.77,4.29,41.18,41.18,0,0,0,5,.82A31.93,31.93,0,0,0,217,497c7.51-.33,13.81-2.34,20.53-5.57,4.63-2.22,8.68-5.43,12.67-8.63a57.3,57.3,0,0,0,7.68-7.5,107,107,0,0,0,15-22.56,174.82,174.82,0,0,0,16-51.61,211.05,211.05,0,0,0,2.5-30.22,202.7,202.7,0,0,0-2.56-30.12c-1.43-9.41-4.19-19.15-9.45-27.17a60.18,60.18,0,0,0-23.22-20.7,129.19,129.19,0,0,0-14.51-6.13c-5.58-2-11.83-3.44-17.76-2.87a38.48,38.48,0,0,0-14.11,3.82,37,37,0,0,0-7.9,5.56,26.93,26.93,0,0,0-3.62,3.85,67.25,67.25,0,0,0-5.84,8.19,105.63,105.63,0,0,0-6.23,13.76,95.74,95.74,0,0,0-3.43,10.48,106.4,106.4,0,0,0-3.57,26.15c-.11,18.72,5.94,37.63,19.32,51.09,7.13,7.17,15.74,12.29,25,16.19a85.46,85.46,0,0,0,31.65,7.21,66,66,0,0,0,31.17-7.27c9-4.55,16.11-11.62,22-19.65,3-4.13,5-8.79,6.86-13.54,2.11-5.38,2.8-11.15,3.45-16.85,1.16-10.17,0-20.49-1.53-30.56a109.65,109.65,0,0,0-6.76-24.77c-4.11-10.12-8.71-19.87-16.56-27.72-9.07-9.06-21.62-14.18-34.45-12.46a36.9,36.9,0,0,0-11.58,3.45,34.16,34.16,0,0,0-8.27,5.8A43,43,0,0,0,230,299.8a95.79,95.79,0,0,0-5.85,14.63,99.54,99.54,0,0,0-3,16.35,89.51,89.51,0,0,0,1.4,27.89,81,81,0,0,0,9.68,25.44,77.28,77.28,0,0,0,16.4,19.79,88.3,88.3,0,0,0,12.29,9A85.92,85.92,0,0,0,274.39,419a51.06,51.06,0,0,0,9.75,2.55c5.05.8,10.34,1.66,15.48,1.12,6.89-.73,13.57-2,19.49-5.88a40.52,40.52,0,0,0,13-13.42c4.85-8.33,6.7-18.35,6.58-27.89-.1-9.1-1.87-18.3-4.18-27.08a163.3,163.3,0,0,0-10.57-28.35,60.14,60.14,0,0,0-6-10.11,70.69,70.69,0,0,0-6.1-7.51A54.93,54.93,0,0,0,304,296a41.32,41.32,0,0,0-15-6.3A68.63,68.63,0,0,0,273,288.27c-19.59.66-38.84,6.34-56.25,15.19A113.75,113.75,0,0,0,193.61,319a61.78,61.78,0,0,0-7.51,7.75c-3.3,4.09-6.59,8.26-8.87,13-2.19,4.57-4.25,9.36-5,14.4a60.19,60.19,0,0,0-1,10,59.1,59.1,0,0,0,1.24,10.36c2,10.34,8.48,19.57,15.44,27.21a182.3,182.3,0,0,0,17.95,16.75,297.05,297.05,0,0,0,24,18.24,176.57,176.57,0,0,0,22.07,13c8.76,4.24,18,8.06,27.72,9.56a83.27,83.27,0,0,0,15.68,1.38,76.69,76.69,0,0,0,15-2,72.58,72.58,0,0,0,13.8-5.16,62.58,62.58,0,0,0,12.23-8.11,50.51,50.51,0,0,0,8.63-9.08A52.59,52.59,0,0,0,352,424.63a82.94,82.94,0,0,0,5.43-16.32,152,152,0,0,0,2.29-16.72,124.16,124.16,0,0,0-.41-25.13,150.64,150.64,0,0,0-5.82-28.84c-1.72-5.34-3.88-10.51-6.11-15.66A91.13,91.13,0,0,0,342,311.14a47,47,0,0,0-9.25-11.64,35.54,35.54,0,0,0-7.84-5.54A34.14,34.14,0,0,0,311,290.35c-7.82-.3-15.15,3.06-21.18,7.72a56.26,56.26,0,0,0-9.41,8.9,88.68,88.68,0,0,0-8.62,12.14,110.74,110.74,0,0,0-6.3,13.8,105.42,105.42,0,0,0-5.71,21,225.58,225.58,0,0,0-3,26.8,133.2,133.2,0,0,0,1.53,29A52.84,52.84,0,0,0,261.44,421a77.36,77.36,0,0,0,4.23,9.32A69.47,69.47,0,0,0,272,439c5.76,7.21,13.53,12.87,21.29,17.76a129.67,129.67,0,0,0,26.83,12.63c1.81.62,3.64,1.21,5.49,1.72A32.88,32.88,0,0,0,339,472.23a23.59,23.59,0,0,0,10.75-3.81c3.81-2.74,6.92-5.49,9.22-9.72,4.87-9,5.15-18.94,3.88-28.8a141.73,141.73,0,0,0-16.63-53.21,117.23,117.23,0,0,0-15.67-22.39,55.32,55.32,0,0,0-25.37-16.39,20.61,20.61,0,0,0-15.41,2c-4.15,2.43-8.11,7.19-9.19,11.95-1.17,5.12-.92,10.87,2,15.42a21.16,21.16,0,0,0,12,9.19,28.59,28.59,0,0,1,3.11,1.08l-4.77-2a34,34,0,0,1,7.15,4.25L296,376.67a56.7,56.7,0,0,1,9.65,10l-3.13-4.05a115.7,115.7,0,0,1,14.26,24.85l-2-4.78a127.67,127.67,0,0,1,8.73,31.91l-.71-5.32c.6,4.52,1.18,9.1.61,13.65l.72-5.32a20,20,0,0,1-1.14,4.51l2-4.78a11.78,11.78,0,0,1-1.47,2.58l3.13-4.05a9.44,9.44,0,0,1-1.13,1.15l4.05-3.13a7.72,7.72,0,0,1-1.73,1l4.77-2a9.4,9.4,0,0,1-1.58.41l5.32-.72a11.71,11.71,0,0,1-2.44,0l5.32.71c-5.16-.83-10.3-2.93-15.11-4.94l4.78,2a106.64,106.64,0,0,1-23-13.34l4,3.13a56.43,56.43,0,0,1-9.66-9.38l3.12,4a41.34,41.34,0,0,1-5.14-8.69l2,4.78A55.39,55.39,0,0,1,296.57,397l.72,5.32c-1.6-12.3-.7-25.12.92-37.38l-.71,5.32A112.32,112.32,0,0,1,304.69,342l-2,4.78a66.37,66.37,0,0,1,8.18-14.35l-3.12,4.05a47.17,47.17,0,0,1,8.36-8.58l-4,3.13a22,22,0,0,1,4.09-2.45l-4.78,2a14.32,14.32,0,0,1,3.33-.92l-5.32.72a12.17,12.17,0,0,1,2.63,0l-5.31-.71a12.31,12.31,0,0,1,2.79.78l-4.77-2a16.22,16.22,0,0,1,3,1.76l-4-3.12a25.9,25.9,0,0,1,4.44,4.56L305,327.65c3.55,4.74,6.1,10.23,8.4,15.65l-2-4.77a125.15,125.15,0,0,1,8.43,31l-.72-5.31a125.24,125.24,0,0,1,.06,33.05l.72-5.32a71.66,71.66,0,0,1-4.37,17.24l2-4.78a43.85,43.85,0,0,1-5.51,9.61l3.12-4.05a41.68,41.68,0,0,1-7.06,7.05l4.05-3.12a45.87,45.87,0,0,1-9.84,5.72l4.77-2A49.68,49.68,0,0,1,294.57,421l5.32-.72a53.48,53.48,0,0,1-13.73-.1l5.32.72A77.91,77.91,0,0,1,272,415.29l4.78,2c-14.07-6-27-14.81-39.13-24.13l4.05,3.13Q233.55,390,225.93,383a112.63,112.63,0,0,1-13.16-13.59l3.13,4.05a41.31,41.31,0,0,1-5.27-8.86l2,4.78a31,31,0,0,1-2-7.26l.72,5.32a30.22,30.22,0,0,1,0-7.72l-.71,5.31a34.88,34.88,0,0,1,2.38-8.38l-2,4.78a46.43,46.43,0,0,1,5.72-9.58l-3.13,4.05a64.82,64.82,0,0,1,11.25-11.14l-4.05,3.13a108.8,108.8,0,0,1,23.54-13.41l-4.78,2a118,118,0,0,1,29.61-8.16l-5.32.71a66.84,66.84,0,0,1,17.36-.45l-5.32-.71a33.46,33.46,0,0,1,7.92,2.11l-4.78-2a27.73,27.73,0,0,1,5.55,3.23l-4-3.13a33.22,33.22,0,0,1,5.56,5.62l-3.13-4.05a70.06,70.06,0,0,1,8.62,15.72l-2-4.78A130.69,130.69,0,0,1,298.8,373l-.71-5.31a57.45,57.45,0,0,1,.15,15l.72-5.32a33.38,33.38,0,0,1-2.16,8.05l2-4.78a23.3,23.3,0,0,1-2.82,4.83l3.13-4.05a20,20,0,0,1-3.3,3.27l4-3.13a19.71,19.71,0,0,1-4,2.28l4.78-2a25,25,0,0,1-5.5,1.44l5.31-.71a39.39,39.39,0,0,1-10-.15l5.32.71a53.4,53.4,0,0,1-13-3.56l4.78,2a59.16,59.16,0,0,1-12.73-7.42l4.05,3.13a63.15,63.15,0,0,1-11.05-11.05L271,370.3a63.78,63.78,0,0,1-7.89-13.49l2,4.77a69.72,69.72,0,0,1-4.75-17.66l.71,5.31a74.44,74.44,0,0,1,.05-19l-.71,5.31a69.3,69.3,0,0,1,4.62-17.09l-2,4.78a45.44,45.44,0,0,1,5.13-9.35l-3.13,4a22.41,22.41,0,0,1,3.63-3.72l-4.05,3.13a17.11,17.11,0,0,1,3.34-1.94l-4.78,2a18,18,0,0,1,4.14-1.08L262,317a20,20,0,0,1,4.31,0l-5.32-.72a22.64,22.64,0,0,1,5.31,1.42l-4.78-2a24.68,24.68,0,0,1,5.3,3.1l-4.05-3.13a35.06,35.06,0,0,1,5.91,6.08l-3.12-4.05a66.35,66.35,0,0,1,7.73,14l-2-4.78a112,112,0,0,1,7.55,28l-.71-5.32a95.5,95.5,0,0,1,.37,24.59l.71-5.31a45.74,45.74,0,0,1-2.88,11l2-4.78a40.51,40.51,0,0,1-5.19,8.85l3.13-4a43.23,43.23,0,0,1-7.54,7.45l4.05-3.13a44.14,44.14,0,0,1-9,5.26l4.78-2a45,45,0,0,1-11,3l5.31-.71a54.19,54.19,0,0,1-14.11-.08l5.31.71a71.39,71.39,0,0,1-17.52-5l4.78,2a65.15,65.15,0,0,1-13.65-7.78l4.05,3.13a47.82,47.82,0,0,1-8.44-8.32l3.13,4.05a45.87,45.87,0,0,1-5.73-9.93l2,4.78a55.61,55.61,0,0,1-3.62-13.77l.71,5.32a75.15,75.15,0,0,1,.14-19.13l-.72,5.32a93.36,93.36,0,0,1,6.42-23.41l-2,4.78a53,53,0,0,1,6.1-11.12l-3.12,4.05a25.12,25.12,0,0,1,4-4.17l-4,3.13a18.83,18.83,0,0,1,3.46-2.11l-4.78,2a16.53,16.53,0,0,1,4-1.1l-5.32.72a20.3,20.3,0,0,1,4.61.07l-5.32-.72a55.33,55.33,0,0,1,13.19,4.18l-4.78-2a58.66,58.66,0,0,1,12.35,7l-4-3.12a37.43,37.43,0,0,1,6.53,6.42l-3.12-4a38.29,38.29,0,0,1,4.78,8.33l-2-4.78a75.9,75.9,0,0,1,4.54,18.74l-.71-5.31a173.89,173.89,0,0,1,0,45.24l.71-5.31a167.59,167.59,0,0,1-11.39,42.41l2-4.77a101.26,101.26,0,0,1-12.46,22l3.13-4a61.35,61.35,0,0,1-10.84,11l4-3.13a45.32,45.32,0,0,1-9.2,5.49l4.78-2a29.88,29.88,0,0,1-7.18,2l5.32-.72a21.94,21.94,0,0,1-4.86.05l5.32.72a18.83,18.83,0,0,1-4.7-1.28l4.78,2a24.22,24.22,0,0,1-4.7-2.91l4.05,3.13c-7.5-6-13.92-13.86-19.8-21.43l3.13,4c-5.17-6.69-10.36-13.71-13.69-21.53l2,4.78a36.42,36.42,0,0,1-2.47-9l.71,5.31a30.14,30.14,0,0,1,0-6.78l-.71,5.32a31,31,0,0,1,2.12-7.73l-2,4.78a35.39,35.39,0,0,1,4.34-7.33l-3.12,4.05a36.59,36.59,0,0,1,6-6l-4.05,3.13a34.77,34.77,0,0,1,7.31-4.33l-4.78,2a44,44,0,0,1,11-3l-5.32.72a66.53,66.53,0,0,1,17.15.29l-5.31-.72a89.77,89.77,0,0,1,21.87,5.64l-4.78-2a53.61,53.61,0,0,1,11.6,6.64l-4-3.13a50.31,50.31,0,0,1,8.51,8.56l-3.12-4.05A74.16,74.16,0,0,1,250.44,433l-2-4.78a146.41,146.41,0,0,1,9.83,37.15l-.71-5.32a129.12,129.12,0,0,1,.26,33.33l.72-5.32a87.12,87.12,0,0,1-5.4,21.64l2-4.78a44,44,0,0,1-5.26,9.28l3.13-4.05a26.77,26.77,0,0,1-4.52,4.63l4-3.12a18.74,18.74,0,0,1-4,2.35l4.78-2a14.91,14.91,0,0,1-3.53.91l5.32-.71a15.43,15.43,0,0,1-3.53-.06l5.32.71a17.86,17.86,0,0,1-3.45-1l4.78,2a24.26,24.26,0,0,1-5.25-3.14l4,3.13a32.94,32.94,0,0,1-5.22-5.27l3.12,4a40.37,40.37,0,0,1-5-8.71l2,4.78a57,57,0,0,1-3.73-14.29l.71,5.31a81.64,81.64,0,0,1,.23-21l-.72,5.32a106.59,106.59,0,0,1,7.25-26.47l-2,4.78a93.3,93.3,0,0,1,11.5-20.06L262,446.36a60.72,60.72,0,0,1,10.64-10.85l-4,3.13a42.49,42.49,0,0,1,8.86-5.23l-4.77,2a35.49,35.49,0,0,1,8.34-2.31l-5.31.71a40.5,40.5,0,0,1,10.55.07l-5.32-.71a55,55,0,0,1,13.4,3.86l-4.78-2a83.09,83.09,0,0,1,17.7,10.59l-4-3.12a98,98,0,0,1,17,17.14l-3.13-4.05a105,105,0,0,1,13.33,22.86l-2-4.78a74.64,74.64,0,0,1,5.54,18.7l-.71-5.32a35.26,35.26,0,0,1,0,8.65l.72-5.31a30.52,30.52,0,0,1-2,7.25l2-4.77a33.52,33.52,0,0,1-4,6.83l3.13-4a37.3,37.3,0,0,1-6.31,6.31l4.05-3.13a37.43,37.43,0,0,1-8,4.68l4.78-2a48.49,48.49,0,0,1-11.89,3.12l5.31-.71c-9.84,1.24-19.87.18-29.66-1.13l5.32.71a216.9,216.9,0,0,1-53.65-14.06l4.78,2a61.34,61.34,0,0,1-13.62-7.64l4,3.12a37.2,37.2,0,0,1-6.12-6l3.13,4.05a32.73,32.73,0,0,1-4-6.77l2,4.78a37,37,0,0,1-2.45-9l.71,5.32a55.1,55.1,0,0,1,.17-14.4l-.71,5.32a108.56,108.56,0,0,1,7.67-26.88l-2,4.78a72.43,72.43,0,0,1,8.72-15.43l-3.12,4.05a41.92,41.92,0,0,1,7.41-7.53l-4.05,3.13a31.33,31.33,0,0,1,6.29-3.71l-4.78,2a28.84,28.84,0,0,1,6.88-1.92l-5.31.71a32.37,32.37,0,0,1,8,0l-5.31-.72a44.37,44.37,0,0,1,10.89,3.07l-4.77-2a69.2,69.2,0,0,1,14.89,8.87l-4.05-3.12a84.52,84.52,0,0,1,14.58,14.7l-3.13-4A96.11,96.11,0,0,1,292.1,467.3l-2-4.77A101,101,0,0,1,297,487.62l-.72-5.32a93.09,93.09,0,0,1,.07,24.62l.72-5.31a55.07,55.07,0,0,1-3.57,13.71l2-4.78a32.59,32.59,0,0,1-3.8,6.6l3.13-4a25.11,25.11,0,0,1-4.16,4.21l4.05-3.13a23.91,23.91,0,0,1-5,2.93l4.78-2a26.69,26.69,0,0,1-6.45,1.7l5.31-.71a38.17,38.17,0,0,1-9.55-.16l5.32.71a85.65,85.65,0,0,1-20.73-6.26l4.78,2a30.83,30.83,0,0,1-6.41-3.54l4.05,3.12a17.78,17.78,0,0,1-2.82-2.8l3.13,4a18.57,18.57,0,0,1-2.2-3.88l2,4.78a24.39,24.39,0,0,1-1.43-5.57l.71,5.32a35.42,35.42,0,0,1,.09-8.79l-.71,5.32a45.71,45.71,0,0,1,3.09-11.12l-2,4.78a66,66,0,0,1,8.64-14.35l-3.13,4.05a144.05,144.05,0,0,1,25.23-24.67l-4,3.13a101.69,101.69,0,0,1,21.57-12.92l-4.77,2a70,70,0,0,1,17.47-5l-5.31.71a61.77,61.77,0,0,1,16.3,0l-5.32-.71a55.09,55.09,0,0,1,13.57,3.73l-4.77-2a50.89,50.89,0,0,1,10.39,6L352.44,461a51.68,51.68,0,0,1,9,9l-3.13-4a76.65,76.65,0,0,1,9.64,16.87l-2-4.78a114.88,114.88,0,0,1,7.81,28.72l-.72-5.31a115.86,115.86,0,0,1,0,30.68l.72-5.32a104.46,104.46,0,0,1-7,26l2-4.78a98.15,98.15,0,0,1-12.56,21.48l3.13-4.05A88.76,88.76,0,0,1,343.72,581l4-3.13a77.55,77.55,0,0,1-16.54,9.7l4.78-2a89.25,89.25,0,0,1-22.48,5.94l5.32-.72c-18.21,2.36-37.05.69-55.17-1.71l5.31.72c-11.12-1.5-22.16-3.85-32.55-8.21l4.78,2a72.22,72.22,0,0,1-15.45-8.74l4,3.13a35.78,35.78,0,0,1-5.91-5.76l3.12,4A29.38,29.38,0,0,1,223.3,570l2,4.78a34.85,34.85,0,0,1-2.24-8.5l.72,5.31A50.69,50.69,0,0,1,224,559l-.72,5.32c1.32-9.75,4.71-19,8.51-28.05l-2,4.78a197.62,197.62,0,0,1,25.32-43.4l-3.13,4c4.77-6.15,9.8-12.52,15.92-17.39l-4,3.13a27.8,27.8,0,0,1,5.86-3.54l-4.77,2a18.3,18.3,0,0,1,4.19-1.14l-5.32.71a16.34,16.34,0,0,1,3.28,0l-5.32-.71a14.82,14.82,0,0,1,3.46.9l-4.78-2a16.15,16.15,0,0,1,3.45,2l-4-3.13a21.45,21.45,0,0,1,3.26,3.27l-3.13-4.05a29.89,29.89,0,0,1,3.71,6.41l-2-4.78a39.32,39.32,0,0,1,2.56,9.46l-.72-5.32a55.34,55.34,0,0,1-.16,14.26l.71-5.32a71.39,71.39,0,0,1-5,17.73l2-4.78a84.83,84.83,0,0,1-10.66,18.15l3.13-4a78.55,78.55,0,0,1-13.6,13.67l4-3.13a69.29,69.29,0,0,1-15.23,9l4.77-2a55.15,55.15,0,0,1-13.93,3.82l5.32-.71a47.06,47.06,0,0,1-11.62,0l5.31.71a43.34,43.34,0,0,1-10.94-3l4.78,2a31.69,31.69,0,0,1-6.51-3.76l4.05,3.13a23.27,23.27,0,0,1-3.73-3.76l3.13,4a26.6,26.6,0,0,1-2.93-5.2l2,4.77A88.74,88.74,0,0,1,203.21,522l.71,5.32a45.78,45.78,0,0,1-.15-11.81l-.72,5.32a29.56,29.56,0,0,1,1.85-6.79l-2,4.77a25.36,25.36,0,0,1,3.18-5.47l-3.13,4a20.27,20.27,0,0,1,2.84-2.87l-4.05,3.13a15.91,15.91,0,0,1,3.36-2l-4.78,2a15.44,15.44,0,0,1,3-.85l-5.31.71a16.33,16.33,0,0,1,3.89,0l-5.31-.72A19.52,19.52,0,0,1,201,518l-4.78-2a24,24,0,0,1,4.54,2.66l-4.05-3.12a30.46,30.46,0,0,1,5.37,5.51l-3.13-4c6,8,9.88,17.71,13.74,26.83l-2-4.78a410.16,410.16,0,0,1,14.2,39.75c3.85,12.65,7,25.48,10.65,38.19,3.57,12.48,7.9,25.17,14.6,36.34A78.21,78.21,0,0,0,263.22,670c3.13,3,6.53,6,10.45,7.85a30.47,30.47,0,0,0,6.38,2.45,28,28,0,0,0,6.59.78,30.82,30.82,0,0,0,13-3.47c7.44-3.61,12.54-11.06,18.24-16.79A169.89,169.89,0,0,1,334,646.63l-4.05,3.12A161.91,161.91,0,0,1,365.26,629l-4.78,2c5-2.1,10.37-4.6,15.74-5.45l-5.32.71a11,11,0,0,1,2.43,0l-5.32-.71a6.13,6.13,0,0,1,1.19.31l-4.78-2a6.32,6.32,0,0,1,1.16.66l-4-3.12a7.56,7.56,0,0,1,1,1l-3.13-4a8.31,8.31,0,0,1,.72,1.22l-2-4.78a6.75,6.75,0,0,1,.38,1.33l-.72-5.32a4,4,0,0,1,0,.91l.71-5.32a3.45,3.45,0,0,1-.19.89l2-4.78a3.56,3.56,0,0,1-.43.82l3.13-4a4.79,4.79,0,0,1-.9.9l4.05-3.13a3.67,3.67,0,0,1-.73.39l4.77-2a5.9,5.9,0,0,1-1.24.3l5.31-.71a10,10,0,0,1-1.81,0l5.31.72a39.44,39.44,0,0,1-7.35-2.16c-2.65-.92-5.27-1.9-7.86-3l4.78,2a73.86,73.86,0,0,1-16.13-9.1l4,3.13a49.55,49.55,0,0,1-8.54-8.4l3.13,4a44.17,44.17,0,0,1-5.34-9.13l2,4.78a43,43,0,0,1-3-10.83l.71,5.32a36.63,36.63,0,0,1-.06-8.94l-.72,5.32a30.51,30.51,0,0,1,2-7.51l-2,4.77c.35-.8.72-1.58,1.13-2.35a21.1,21.1,0,0,0,2-15.41c-1.28-4.64-4.87-9.67-9.19-11.95-4.65-2.46-10.27-3.69-15.42-2-4.84,1.57-9.5,4.57-11.95,9.19Z"/><path class="cls-3" d="M107,157.6l-.38-10.88c-.09-2.71-4.31-3.54-4.91-.67L97.51,166h4.82c-2-9.11-2-18.47-1.41-27.73.27-4.59.65-9.18,1.07-13.76.38-4.08,1-8.39,3-12,1.78-3.13,4.85-5.89,8.6-6,3.2-.12,3.22-5.12,0-5A15,15,0,0,0,102.77,107a25.23,25.23,0,0,0-5.19,12.6c-.76,5-1.06,10-1.42,15s-.62,10.24-.53,15.37a88.86,88.86,0,0,0,1.88,17.29c.5,2.37,4.32,2.39,4.82,0l4.15-19.91-4.91-.66L102,157.6c.11,3.2,5.11,3.22,5,0Z"/><path class="cls-3" d="M439.57,104.53l-11.33-.89a2.51,2.51,0,0,0-2.5,2.5,2.57,2.57,0,0,0,2.5,2.5l11.33.89a2.5,2.5,0,0,0,2.5-2.5,2.56,2.56,0,0,0-2.5-2.5Z"/><path class="cls-3" d="M318,669.24a47.7,47.7,0,0,0-13.69.81,2.52,2.52,0,0,0-1.49,3.67,3.69,3.69,0,0,1,.4,1l1.14-2.83a59.6,59.6,0,0,1-11.68,3.54,2.53,2.53,0,0,0-1.75,3.07,2.56,2.56,0,0,0,3.08,1.75,65.48,65.48,0,0,0,12.88-4,2.53,2.53,0,0,0,1.15-2.82,8.55,8.55,0,0,0-.9-2.24l-1.5,3.67a42.72,42.72,0,0,1,12.36-.63,2.52,2.52,0,0,0,2.5-2.5,2.55,2.55,0,0,0-2.5-2.5Z"/><path class="cls-3" d="M157.27,672.27a2.78,2.78,0,0,1,.38.12l-.6-.25a1.92,1.92,0,0,1,.46.27L157,672a2.78,2.78,0,0,1,.48.49l-.39-.5a6.83,6.83,0,0,1,.82,1.53l-.25-.59a16.21,16.21,0,0,0,1.3,2.84,5.39,5.39,0,0,0,1.58,1.61,4.25,4.25,0,0,0,2.19.63,2.5,2.5,0,1,0,0-5l-.2,0,.67.09a1.66,1.66,0,0,1-.45-.12l.59.26A3.07,3.07,0,0,1,163,673l.51.39A2.49,2.49,0,0,1,163,673l.39.51a6.48,6.48,0,0,1-.8-1.49l.25.59a19.71,19.71,0,0,0-1.25-2.77,5,5,0,0,0-3-2.35,2.69,2.69,0,0,0-1.93.25,2.58,2.58,0,0,0-1.15,1.5,2.52,2.52,0,0,0,.25,1.92,2.48,2.48,0,0,0,1.5,1.15Z"/><path class="cls-3" d="M491.22,494.42v-8.28a2.5,2.5,0,0,0-5,0v8.28a2.5,2.5,0,1,0,5,0Z"/><path class="cls-3" d="M98.42,450.11a443.44,443.44,0,0,1-.87,48.09,2.52,2.52,0,0,0,2.5,2.5,2.56,2.56,0,0,0,2.5-2.5c.9-7.87,1.83-15.75,2.7-23.62a148.34,148.34,0,0,0,1.1-23.55,2.52,2.52,0,0,0-4.66-1.26,59.69,59.69,0,0,0-7.78,21.57,60.9,60.9,0,0,0-.68,11.52c.15,3.61.31,7.59,3.56,9.84,1.62,1.12,3.73-.39,3.76-2.16.14-7.32.17-14.64-.19-22l-4.91.66a68.63,68.63,0,0,1-.63,39c-1,3.07,3.86,4.39,4.82,1.32a73.49,73.49,0,0,0,.63-41.64c-.74-2.65-5-2.21-4.91.67.36,7.31.33,14.63.19,22l3.76-2.16c-.73-.51-.81-1.89-.89-2.69a47.86,47.86,0,0,1-.24-4.79A53.55,53.55,0,0,1,99,471a55.77,55.77,0,0,1,7-18.66L101.35,451a148.34,148.34,0,0,1-1.1,23.55c-.86,7.87-1.8,15.75-2.7,23.62h5a443.44,443.44,0,0,0,.87-48.09c-.12-3.21-5.12-3.23-5,0Z"/><path class="cls-3" d="M91.28,617.53a29.09,29.09,0,0,0,6.89,23.54c1.45,1.65,4.3.32,4.27-1.77A378.46,378.46,0,0,1,105,588.48a2.47,2.47,0,0,0-2.17-2.46,2.51,2.51,0,0,0-2.74,1.8c-6.3,22.76-2.42,46.61,3.5,69,1.7,6.43,3.58,12.82,5.49,19.2l4.57-1.93a36.66,36.66,0,0,1-5.19-11.59l-3.67,2.82a106.06,106.06,0,0,0,25.67,13,2.51,2.51,0,0,0,3.07-1.74,2.55,2.55,0,0,0-1.74-3.08A101.11,101.11,0,0,1,107.33,661c-1.87-1.3-4.17.84-3.67,2.82a41,41,0,0,0,5.69,12.8c1.52,2.25,5.42.92,4.57-1.93-6.47-21.67-13.08-44.08-12-66.94a85.65,85.65,0,0,1,3-18.62l-4.91-.66a378.46,378.46,0,0,0-2.58,50.82l4.27-1.76a23.66,23.66,0,0,1-5.6-18.68,2.59,2.59,0,0,0-1.75-3.07,2.52,2.52,0,0,0-3.08,1.74Z"/><path class="cls-3" d="M103.15,401.39l-.34-3.92a2.59,2.59,0,0,0-1.83-2.41,2.52,2.52,0,0,0-2.83,1.15A25.79,25.79,0,0,0,95.64,408a2.51,2.51,0,0,0,2.17,2.45,2.46,2.46,0,0,0,2.74-1.79q1.5-10.14,3.15-20.27a2.58,2.58,0,0,0-1.74-3.08,2.53,2.53,0,0,0-3.08,1.75q-1.65,10.13-3.15,20.27l4.91.67a20.25,20.25,0,0,1,1.83-9.27l-4.66-1.26.34,3.92a2.55,2.55,0,0,0,2.5,2.5,2.52,2.52,0,0,0,2.5-2.5Z"/></svg>